<svg id="vishu" xmlns="http://www.w3.org/2000/svg" width="100%" height="100%" viewBox="0 0 466 432"
    version="1.1">
    <path
        d="M 242.375 60.798 C 242.810 61.501, 242.104 62.187, 240.541 62.579 C 239.143 62.930, 238 63.645, 238 64.167 C 238 64.690, 238.520 64.797, 239.155 64.405 C 239.918 63.933, 240.035 64.134, 239.502 64.997 C 238.862 66.032, 238.444 65.961, 237.487 64.651 C 236.817 63.735, 234.909 63, 233.199 63 C 231.504 63, 229.831 62.536, 229.481 61.969 C 228.551 60.464, 221.877 61.905, 219.417 64.141 C 217.441 65.937, 216.398 69.490, 218.167 68.397 C 218.625 68.114, 219 68.292, 219 68.793 C 219 69.295, 221.004 68.759, 223.454 67.602 C 228.211 65.357, 229.718 63.396, 225.435 65.025 C 221.706 66.443, 220.201 66.163, 222.441 64.468 C 224.731 62.737, 229 62.513, 229 64.125 C 229 64.846, 230.096 65.031, 232.050 64.640 C 233.727 64.305, 234.859 64.419, 234.566 64.893 C 234.273 65.368, 235.448 66.040, 237.179 66.386 C 239.399 66.830, 240.867 66.525, 242.163 65.353 C 243.173 64.438, 244.004 64.097, 244.008 64.595 C 244.012 65.093, 245.144 66.023, 246.523 66.663 C 248.429 67.547, 249.333 67.547, 250.289 66.663 C 251.763 65.301, 253.085 64.886, 258.500 64.089 C 260.700 63.765, 262.624 62.904, 262.775 62.176 C 262.938 61.389, 262.575 61.144, 261.881 61.574 C 260.834 62.221, 257.859 62.770, 252.750 63.258 C 251.787 63.350, 251 63.732, 251 64.106 C 251 64.480, 250.376 65.025, 249.613 65.318 C 248.614 65.702, 248.379 65.265, 248.774 63.757 C 249.191 62.163, 248.952 61.804, 247.776 62.256 C 246.925 62.582, 245.203 62.130, 243.949 61.252 C 242.695 60.373, 241.986 60.169, 242.375 60.798 M 267.391 65.181 C 266.670 66.341, 268.916 67.162, 271 66.500 C 272.091 66.154, 274.214 65.647, 275.719 65.375 C 280.374 64.530, 279.484 64.097, 273.521 64.303 C 270.382 64.411, 267.624 64.806, 267.391 65.181 M 280.399 66.250 C 280.003 66.938, 280.056 67.158, 280.515 66.741 C 280.975 66.323, 282.375 66.943, 283.625 68.117 C 284.886 69.302, 286.576 69.993, 287.420 69.669 C 288.257 69.348, 289.518 69.628, 290.221 70.292 C 290.924 70.957, 292.833 71.657, 294.462 71.849 C 296.092 72.042, 297.892 72.748, 298.462 73.419 C 300.288 75.567, 304.571 77.812, 307.821 78.324 C 311.160 78.851, 316.882 81.941, 320.944 85.412 L 323.387 87.500 320.944 84.426 C 318.667 81.562, 311.101 77.278, 309.423 77.903 C 309.014 78.055, 308.279 77.464, 307.790 76.590 C 307.301 75.715, 305.798 75, 304.450 75 C 303.103 75, 302 74.595, 302 74.099 C 302 73.604, 300.012 72.376, 297.582 71.371 C 295.152 70.366, 293.342 69.256, 293.558 68.906 C 293.775 68.555, 292.159 68.369, 289.966 68.492 C 287.266 68.645, 285.289 68.118, 283.837 66.859 C 281.294 64.653, 281.315 64.657, 280.399 66.250 M 226.254 67.992 C 224.584 69.007, 222.948 70.276, 222.617 70.811 C 221.707 72.283, 229.761 69.668, 231.503 67.926 C 232.836 66.592, 232.797 66.410, 231.146 66.286 C 230.125 66.209, 227.923 66.977, 226.254 67.992 M 208.397 72.167 C 208.114 72.625, 208.557 73, 209.382 73 C 210.207 73, 211.114 72.625, 211.397 72.167 C 211.680 71.708, 211.237 71.333, 210.412 71.333 C 209.587 71.333, 208.680 71.708, 208.397 72.167 M 203.138 77.880 C 201.914 78.942, 201.220 80.409, 201.543 81.251 C 201.858 82.071, 201.414 83.443, 200.558 84.300 C 199.701 85.156, 199 86.400, 199 87.063 C 199 87.727, 199.943 87.071, 201.096 85.605 C 202.248 84.140, 202.946 82.301, 202.645 81.518 C 202.329 80.694, 203.235 79.246, 204.800 78.079 C 206.285 76.970, 207.006 76.049, 206.403 76.032 C 205.800 76.014, 204.331 76.846, 203.138 77.880 M 191.311 90.250 C 190.200 91.737, 190.223 93.015, 191.393 94.862 C 191.940 95.725, 191.762 96.529, 190.907 97.057 C 190.165 97.516, 189.803 98.137, 190.104 98.437 C 190.404 98.737, 192.749 96.882, 195.316 94.316 C 197.882 91.749, 199.700 89.391, 199.354 89.075 C 199.009 88.759, 198.525 89.063, 198.280 89.750 C 198.034 90.438, 196.494 91, 194.858 91 C 193.129 91, 192.141 90.581, 192.500 90 C 193.389 88.562, 192.420 88.765, 191.311 90.250 M 333.097 95.440 C 334.252 97.398, 335.390 99, 335.624 99 C 336.335 99, 333.089 93.173, 332.005 92.503 C 331.451 92.160, 331.942 93.482, 333.097 95.440 M 183.206 98.568 C 181.974 99.431, 181.239 100.578, 181.572 101.117 C 181.963 101.749, 182.623 101.728, 183.431 101.057 C 184.120 100.485, 184.969 100.303, 185.318 100.651 C 186.206 101.540, 189.099 98.970, 188.430 97.887 C 187.612 96.563, 185.716 96.810, 183.206 98.568 M 179.195 106.500 C 179.215 108.150, 179.439 108.704, 179.693 107.731 C 179.947 106.758, 179.930 105.408, 179.656 104.731 C 179.382 104.054, 179.175 104.850, 179.195 106.500 M 177.600 113.600 C 177.244 114.527, 177.178 115.511, 177.453 115.786 C 177.728 116.061, 178.244 115.527, 178.600 114.600 C 178.956 113.673, 179.022 112.689, 178.747 112.414 C 178.472 112.139, 177.956 112.673, 177.600 113.600 M 173.778 132.432 C 172.963 134.909, 172.662 136.709, 173.111 136.432 C 174.002 135.881, 176.157 128.824, 175.603 128.270 C 175.415 128.082, 174.594 129.954, 173.778 132.432 M 348.493 131.250 C 348.785 132.488, 349.670 136.425, 350.459 140 C 351.682 145.542, 351.845 145.837, 351.563 142 C 351.210 137.202, 349.241 129, 348.442 129 C 348.178 129, 348.201 130.012, 348.493 131.250 M 266.356 133.768 C 266.915 134.671, 263.341 135.108, 257 134.910 C 248.823 134.654, 229.969 135.101, 227 135.621 C 225.075 135.957, 222.600 136.293, 221.500 136.366 C 220.400 136.440, 218.535 137.485, 217.355 138.688 C 216.175 139.892, 214.974 140.641, 214.686 140.353 C 213.677 139.343, 211.589 144.538, 211.411 148.500 C 211.312 150.700, 211.438 151.713, 211.689 150.750 C 211.941 149.787, 212.590 149, 213.132 149 C 213.674 149, 213.861 149.416, 213.546 149.925 C 213.232 150.434, 213.525 152.058, 214.198 153.535 C 215.234 155.809, 215.167 156.405, 213.758 157.435 C 211.941 158.763, 212.402 162.989, 214.367 163.015 C 214.990 163.023, 214.375 163.599, 213 164.294 C 211.625 164.990, 210.500 166.071, 210.500 166.696 C 210.500 167.322, 210.162 168.171, 209.750 168.583 C 209.338 168.996, 209 170.185, 209 171.226 C 209 172.266, 208.550 172.840, 208 172.500 C 207.145 171.972, 206.768 173.266, 207.085 175.638 C 207.132 175.989, 206.570 176.688, 205.835 177.192 C 204.850 177.868, 205.016 178.026, 206.471 177.796 C 207.731 177.596, 209.666 178.839, 211.837 181.242 C 213.705 183.309, 215.625 185, 216.105 185 C 217.163 185, 220.562 187.703, 223.293 190.716 C 224.398 191.935, 225.760 192.648, 226.321 192.302 C 226.937 191.921, 227.087 192.330, 226.701 193.336 C 226.346 194.263, 226.547 195, 227.156 195 C 228.704 195, 227.497 200.256, 224.490 206.612 C 223.121 209.507, 221.993 212.467, 221.985 213.188 C 221.967 214.892, 219.409 222.211, 216.936 227.641 C 213.591 234.984, 214.357 245.891, 218.352 247.795 C 222.515 249.779, 224.531 250.275, 227.614 250.074 C 229.350 249.960, 231.420 250.563, 232.292 251.435 C 233.153 252.296, 234.564 253, 235.429 253 C 236.293 253, 237 253.450, 237 254 C 237 254.550, 237.675 255, 238.500 255 C 239.325 255, 240 255.444, 240 255.987 C 240 257.398, 247.884 260.694, 251.809 260.923 C 252.529 260.966, 252.864 261.410, 252.554 261.912 C 252.244 262.414, 252.769 262.710, 253.721 262.570 C 255.467 262.314, 258 265.927, 258 268.673 C 258 269.468, 258.419 269.859, 258.931 269.543 C 259.443 269.226, 260.144 269.425, 260.490 269.984 C 260.835 270.543, 260.704 271, 260.198 271 C 259.691 271, 259.491 272.120, 259.753 273.488 C 260.019 274.879, 260.687 275.693, 261.269 275.334 C 261.893 274.948, 262.007 275.180, 261.554 275.912 C 261.112 276.628, 261.566 277.713, 262.650 278.535 C 263.990 279.550, 264.110 279.945, 263.083 279.968 C 262.304 279.986, 261.956 280.289, 262.309 280.643 C 262.663 280.996, 263.638 280.716, 264.476 280.020 C 265.367 279.280, 266 279.182, 266 279.784 C 266 280.350, 266.907 280.576, 268.015 280.286 C 269.543 279.886, 269.884 280.138, 269.426 281.331 C 268.459 283.851, 258.851 286.279, 256.250 284.660 C 255.563 284.232, 254.993 284.246, 254.985 284.691 C 254.976 285.136, 254.639 285.047, 254.235 284.494 C 253.079 282.913, 246.236 278, 245.189 278 C 244.669 278, 243.617 277.056, 242.852 275.903 C 241.069 273.219, 232.866 272.052, 230.316 274.121 C 229.381 274.879, 228.927 274.982, 229.306 274.348 C 229.804 273.519, 228.251 273.271, 223.748 273.462 C 212.581 273.936, 212.999 273.828, 213.015 276.250 C 213.047 280.899, 213.743 281.255, 225.154 282.445 C 228.813 282.826, 232.564 283.692, 233.489 284.368 C 235.053 285.512, 235.033 285.838, 233.194 289.049 C 232.107 290.947, 231.360 293.326, 231.533 294.336 C 231.833 296.086, 231.757 296.090, 229.924 294.431 C 228.082 292.764, 228 292.782, 228 294.845 C 228 296.201, 228.649 297.029, 229.750 297.079 C 230.795 297.126, 230.997 297.361, 230.250 297.662 C 228.004 298.569, 228.938 299.879, 231.500 299.414 C 233.129 299.119, 234 299.419, 234 300.276 C 234 301.081, 235.436 301.688, 237.702 301.841 C 239.738 301.978, 241.976 302.565, 242.676 303.146 C 244.484 304.646, 251.013 304.932, 254.190 303.650 C 256.556 302.696, 258.411 299.921, 258.117 297.777 C 258.063 297.379, 259.372 297.324, 261.027 297.655 C 263.527 298.155, 263.930 297.982, 263.411 296.629 C 262.993 295.540, 263.319 295, 264.393 295 C 265.319 295, 266 294.174, 266 293.052 C 266 290.640, 270.629 285.386, 271.212 287.136 C 271.445 287.836, 272.154 288.023, 272.877 287.576 C 273.570 287.148, 273.886 286.145, 273.580 285.347 C 273.227 284.428, 273.443 284.156, 274.169 284.604 C 274.949 285.086, 275.135 284.622, 274.750 283.154 C 274.268 281.308, 274.538 281.058, 276.613 281.435 C 277.948 281.677, 278.809 281.500, 278.526 281.042 C 277.893 280.018, 280.048 279.137, 281.742 279.728 C 282.647 280.044, 282.705 280.683, 281.957 282.081 C 281.317 283.277, 281.294 284, 281.897 284 C 283.139 284, 284.323 280.331, 283.507 279.011 C 283.164 278.457, 283.585 277.003, 284.442 275.779 C 285.299 274.556, 286.014 273.993, 286.030 274.527 C 286.047 275.062, 286.521 274.709, 287.085 273.742 C 287.648 272.775, 287.852 271.570, 287.540 271.064 C 287.227 270.558, 287.831 269.871, 288.883 269.537 C 290.188 269.123, 290.632 268.307, 290.281 266.965 C 289.998 265.884, 290.179 265, 290.682 265 C 291.186 265, 292.170 263.418, 292.869 261.484 C 293.569 259.551, 294.554 258.224, 295.059 258.536 C 295.564 258.849, 295.739 258.485, 295.449 257.728 C 295.159 256.971, 296.176 255.070, 297.710 253.503 C 299.245 251.936, 299.861 251.031, 299.079 251.492 C 298.204 252.007, 298.396 251.317, 299.579 249.696 C 300.636 248.248, 301.837 247.049, 302.250 247.031 C 302.663 247.014, 303 246.351, 303 245.557 C 303 244.763, 304 243.413, 305.223 242.557 C 307.212 241.163, 306.993 240.504, 304.676 240.906 C 304.222 240.985, 304.141 240.581, 304.495 240.008 C 304.849 239.436, 305.544 239.218, 306.040 239.525 C 307.013 240.126, 308.589 235.357, 308.142 233.158 C 307.993 232.420, 308.687 231.196, 309.685 230.440 C 310.683 229.683, 311.013 229.049, 310.418 229.032 C 309.723 229.011, 309.495 227.081, 309.780 223.639 C 310.807 211.252, 305.857 191.446, 300.655 187.129 C 299.757 186.383, 299.269 185.374, 299.570 184.887 C 299.871 184.399, 299.604 184, 298.976 184 C 298.347 184, 298.022 183.438, 298.253 182.750 C 298.833 181.025, 293.664 168.750, 290.681 164.767 C 288.968 162.479, 288.313 160.451, 288.498 158 C 288.643 156.075, 288.197 153.825, 287.508 153 C 286.819 152.175, 285.464 149.798, 284.498 147.717 C 283.532 145.636, 281.449 142.551, 279.870 140.861 C 278.292 139.171, 277 137.434, 277 137.001 C 277 136.216, 274.620 134.931, 272.250 134.437 C 271.563 134.294, 271 134.639, 271 135.203 C 271 135.768, 269.820 135.457, 268.377 134.511 C 266.934 133.566, 266.025 133.231, 266.356 133.768 M 171.310 149.500 C 171.315 152.800, 171.502 154.029, 171.725 152.232 C 171.947 150.435, 171.943 147.735, 171.715 146.232 C 171.486 144.729, 171.304 146.200, 171.310 149.500 M 293.016 149.970 C 292.386 151.147, 292.071 152.648, 292.316 153.305 C 292.561 153.962, 293.278 153.200, 293.909 151.611 C 295.285 148.145, 294.634 146.947, 293.016 149.970 M 208.751 155.038 C 210.757 156.993, 211.291 156.922, 210.481 154.810 C 210.169 153.998, 209.259 153.333, 208.458 153.333 C 207.297 153.333, 207.357 153.680, 208.751 155.038 M 294 154.566 C 294 156.137, 296.222 158.981, 297.050 158.469 C 297.573 158.146, 298.036 158.696, 298.079 159.691 C 298.122 160.686, 298.380 160.953, 298.651 160.284 C 298.922 159.615, 298.324 157.941, 297.322 156.565 C 295.625 154.235, 294 153.257, 294 154.566 M 170.748 164.218 C 170.384 165.163, 170.548 166.221, 171.112 166.569 C 171.675 166.917, 171.900 167.817, 171.612 168.569 C 171.323 169.321, 171.518 170.202, 172.044 170.527 C 173.120 171.192, 173.147 168.744, 172.104 165 C 171.525 162.919, 171.297 162.788, 170.748 164.218 M 350.483 167.237 C 350.056 169.581, 349.770 171.830, 349.847 172.233 C 349.925 172.636, 348.922 175.336, 347.619 178.233 C 346.315 181.130, 344.948 185.188, 344.579 187.250 C 344.211 189.313, 343.582 191, 343.182 191 C 342.782 191, 341.985 193.025, 341.411 195.500 C 340.836 197.975, 340.734 200, 341.183 200 C 341.632 200, 342.034 199.662, 342.077 199.250 C 342.119 198.838, 342.327 197.825, 342.540 197 C 342.753 196.175, 343.091 194.650, 343.292 193.612 C 343.493 192.573, 344.297 191.221, 345.079 190.608 C 345.861 189.995, 346.593 188.990, 346.707 188.375 C 347.585 183.638, 347.915 182.256, 348.588 180.500 C 349.009 179.400, 349.778 178.215, 350.297 177.867 C 350.815 177.519, 351.213 175.372, 351.182 173.097 C 351.142 170.176, 351.474 169.159, 352.312 169.640 C 352.966 170.014, 353.166 169.952, 352.759 169.502 C 352.351 169.052, 352.426 168.191, 352.926 167.589 C 353.486 166.914, 353.341 165.820, 352.547 164.734 C 351.402 163.168, 351.174 163.445, 350.483 167.237 M 172.489 175.104 C 173.583 176.422, 174.596 177.688, 174.739 177.917 C 174.883 178.146, 175 177.599, 175 176.702 C 175 175.805, 173.988 174.539, 172.750 173.890 L 170.500 172.709 172.489 175.104 M 175.656 183.500 C 175.991 185.700, 176.431 187.688, 176.633 187.917 C 177.390 188.776, 176.823 183.420, 175.953 181.500 C 175.322 180.106, 175.232 180.712, 175.656 183.500 M 257 187.160 C 249.059 188.215, 240.717 191.317, 240.423 193.325 C 240.189 194.916, 241.092 195.281, 245.227 195.269 C 246.259 195.266, 246.668 195.715, 246.243 196.382 C 245.851 196.997, 245.486 197.725, 245.432 198 C 244.994 200.205, 242.886 203.888, 241.815 204.316 C 241.079 204.610, 241.439 204.877, 242.631 204.921 C 244.294 204.983, 245.007 205.972, 245.876 209.424 C 247.020 213.966, 249.516 217.417, 250.995 216.503 C 251.454 216.219, 251.980 216.429, 252.165 216.968 C 252.878 219.054, 256.741 216.710, 258.038 213.403 C 258.782 211.508, 260.202 209.222, 261.195 208.323 C 262.188 207.425, 263 206.085, 263 205.345 C 263 203.810, 264.155 203.593, 265.550 204.867 C 266.566 205.795, 276 209.109, 276 208.538 C 276 207.804, 269.216 204.251, 264.485 202.507 C 258.697 200.373, 256.736 198.989, 259.550 199.024 C 263.799 199.076, 269.469 200.993, 274.361 204.030 C 277.693 206.099, 278.874 206.528, 277.720 205.249 C 276.742 204.164, 274.154 202.471, 271.970 201.487 C 269.787 200.502, 268 199.329, 268 198.880 C 268 198.430, 267.212 198.316, 266.250 198.626 C 264.778 199.099, 264.739 199.020, 266 198.126 C 266.840 197.532, 270.251 197.242, 273.750 197.469 C 277.188 197.692, 280 197.479, 280 196.996 C 280 195.455, 277.865 194.735, 276.713 195.887 C 276.101 196.499, 275.127 196.986, 274.550 196.970 C 273.973 196.953, 274.288 196.481, 275.250 195.920 C 277.661 194.516, 277.444 193, 274.833 193 C 273.642 193, 272.963 192.704, 273.325 192.342 C 274.100 191.567, 272.175 189, 270.819 189 C 270.303 189, 270.203 189.520, 270.595 190.155 C 271.084 190.946, 270.867 191.033, 269.905 190.431 C 269.132 189.948, 268.050 189.497, 267.500 189.429 C 266.950 189.360, 265.600 189.201, 264.500 189.073 C 263.360 188.942, 263.037 188.625, 263.750 188.338 C 264.438 188.060, 265 187.496, 265 187.083 C 265 186.194, 264.220 186.201, 257 187.160 M 206.943 199.944 C 208.134 200.697, 208.171 201.329, 207.157 203.554 C 205.994 206.108, 206.050 206.219, 208.214 205.640 C 209.471 205.303, 211.512 205.021, 212.750 205.014 C 216.275 204.992, 215.425 202.204, 211.378 200.513 C 207.400 198.852, 204.661 198.500, 206.943 199.944 M 340.005 203 C 339.968 204.412, 331.665 208.428, 326.090 209.731 C 320.438 211.052, 315.845 219.554, 314.613 230.976 C 314.341 233.497, 313.670 236.737, 313.123 238.177 C 312.576 239.616, 312.344 241.011, 312.609 241.276 C 313.278 241.945, 310.935 251.215, 309.698 252.793 C 308.363 254.496, 308.516 262.228, 309.939 264.885 C 311.279 267.390, 318.351 271, 321.916 271 C 323.734 271, 326.083 269.264, 330.181 264.890 C 338.097 256.440, 340.753 250.881, 346.416 230.912 C 348.552 223.378, 348.407 215.445, 346.044 210.500 C 343.566 205.315, 340.059 200.959, 340.005 203 M 335 213 C 335 213.550, 335.471 214, 336.048 214 C 336.624 214, 338.226 215.220, 339.608 216.711 C 341.587 218.846, 342.301 219.131, 342.968 218.052 C 343.911 216.526, 343.216 213.890, 341.573 212.765 C 339.974 211.671, 335 211.848, 335 213 M 194.244 221.152 C 195.150 223.572, 194.033 224.137, 191.646 222.465 C 189.084 220.670, 187.694 220.582, 188.250 222.250 C 188.479 222.938, 189.304 223.510, 190.083 223.522 C 190.899 223.535, 191.366 224.320, 191.183 225.373 C 190.993 226.467, 191.294 226.936, 191.933 226.541 C 193.596 225.514, 193.186 228.671, 191.429 230.429 C 190.564 231.293, 190.339 232, 190.929 232 C 191.518 232, 192 232.648, 192 233.441 C 192 235.492, 193.852 236.368, 195.427 235.061 C 196.438 234.222, 196.910 234.323, 197.352 235.474 C 198.349 238.072, 199.625 237.156, 199.407 234 C 199.268 231.996, 199.664 231, 200.600 231 C 201.370 231, 202 230.502, 202 229.893 C 202 229.284, 201.325 229.045, 200.500 229.362 C 199.675 229.678, 199 229.501, 199 228.969 C 199 228.436, 199.450 228, 200 228 C 200.550 228, 201 227.502, 201 226.893 C 201 226.284, 200.302 226.054, 199.448 226.382 C 198.594 226.709, 198.125 226.606, 198.406 226.153 C 198.686 225.700, 198.523 224.017, 198.043 222.414 C 197.564 220.811, 197.133 220.118, 197.086 220.872 C 197.013 222.036, 196.743 222.036, 195.313 220.872 C 193.845 219.679, 193.706 219.715, 194.244 221.152 M 340.118 229.750 C 340.216 234.482, 340.372 234.969, 341 232.500 C 342.134 228.042, 342.134 224, 341 224 C 340.436 224, 340.052 226.504, 340.118 229.750 M 323.738 228.250 C 324.405 230.974, 325.894 233, 327.231 233 C 328.524 233, 327.209 227.754, 325.671 226.775 C 323.684 225.512, 323.165 225.908, 323.738 228.250 M 327.694 233.639 C 326.895 234.438, 327.798 236, 329.059 236 C 329.577 236, 330 235.325, 330 234.500 C 330 232.954, 328.820 232.513, 327.694 233.639 M 194 237.091 L 191.500 237.801 194.167 237.900 C 195.633 237.955, 197.034 238.563, 197.280 239.250 C 197.525 239.938, 197.976 240.274, 198.281 239.998 C 198.587 239.723, 198.311 238.796, 197.668 237.939 C 196.855 236.854, 195.740 236.597, 194 237.091 M 336.210 243.505 C 335.006 245.983, 333.956 248.345, 333.876 248.755 C 333.796 249.165, 332.884 250.093, 331.849 250.818 C 330.814 251.544, 330.226 252.556, 330.542 253.068 C 331.385 254.432, 333 254.205, 333 252.723 C 333 252.020, 334.376 249.939, 336.059 248.097 C 337.741 246.255, 338.886 244.144, 338.602 243.406 C 338.319 242.668, 338.518 241.798, 339.044 241.473 C 340.203 240.756, 340.314 239, 339.199 239 C 338.759 239, 337.414 241.027, 336.210 243.505 M 231.143 243.890 C 229.164 245.144, 231.365 246.277, 237.246 247.032 C 242.108 247.655, 243.303 246.703, 240.800 244.200 C 239.419 242.819, 233.151 242.618, 231.143 243.890 M 218 261.893 C 218 262.384, 218.675 263.045, 219.500 263.362 C 220.325 263.678, 221 264.899, 221 266.076 C 221 267.545, 221.459 268.038, 222.468 267.651 C 223.275 267.341, 224.232 267.566, 224.593 268.150 C 225.030 268.857, 225.538 268.759, 226.110 267.857 C 226.795 266.776, 226.972 266.766, 226.985 267.809 C 226.993 268.529, 227.450 268.840, 228 268.500 C 228.550 268.160, 229 268.359, 229 268.941 C 229 270.367, 230.117 270.227, 232.372 268.519 C 234.063 267.238, 234.094 266.951, 232.693 265.551 C 231.841 264.698, 230.211 264, 229.071 264 C 227.932 264, 227 263.595, 227 263.100 C 227 262.604, 225.624 262.294, 223.942 262.411 C 222.261 262.527, 220.659 262.258, 220.383 261.811 C 219.708 260.719, 218 260.778, 218 261.893 M 306.959 272.767 C 305.056 274.840, 302.612 278.552, 301.528 281.017 C 300.443 283.483, 299.273 285.725, 298.927 286 C 298.582 286.275, 297.759 287.525, 297.100 288.778 C 296.440 290.031, 295.472 290.792, 294.950 290.469 C 294.427 290.146, 294 290.467, 294 291.182 C 294 292.555, 287.210 303.016, 285.561 304.184 C 285.030 304.560, 284.302 304.687, 283.943 304.465 C 283.584 304.243, 282.260 305.159, 281 306.500 C 279.740 307.841, 278.255 308.658, 277.700 308.315 C 277.139 307.968, 276.997 308.187, 277.382 308.809 C 278.108 309.984, 274.718 314, 273 314 C 272.450 314, 272 314.502, 272 315.117 C 272 315.731, 271.199 316.024, 270.220 315.768 C 268.436 315.301, 266 317.088, 266 318.864 C 266 319.386, 264.988 319.625, 263.750 319.395 C 262.512 319.166, 262.063 319.245, 262.750 319.572 C 264.079 320.204, 264.518 322.147, 263.250 321.788 C 262.091 321.459, 257.598 324.126, 256.676 325.690 C 256.164 326.557, 255.026 326.856, 253.676 326.478 C 252.186 326.061, 251.917 326.159, 252.824 326.789 C 253.903 327.539, 253.857 328, 252.574 329.283 C 250.420 331.437, 250.554 331.743, 253.989 332.497 C 258.143 333.410, 258.582 334.713, 255 335.500 C 253.340 335.865, 252.238 336.576, 252.550 337.081 C 252.863 337.587, 252.291 338, 251.281 338 C 250.271 338, 248.669 338.905, 247.722 340.011 C 245.605 342.484, 245.546 343.111, 247.500 342.362 C 248.325 342.045, 249 342.236, 249 342.786 C 249 343.336, 248.293 344.057, 247.429 344.389 C 246.056 344.916, 246.120 345.359, 247.929 347.900 C 249.068 349.500, 250 351.302, 250 351.904 C 250 352.507, 250.498 353, 251.107 353 C 251.716 353, 251.939 353.717, 251.603 354.593 C 251.195 355.656, 251.660 356.360, 253.003 356.711 C 254.520 357.108, 254.958 357.964, 254.788 360.194 C 254.519 363.724, 253.679 364.387, 250.492 363.587 C 247.786 362.908, 240.351 355.437, 237.833 350.867 C 235.809 347.192, 233.006 344, 231.805 344 C 231.317 344, 229.700 343.100, 228.210 342 C 226.719 340.900, 224.014 339.574, 222.198 339.055 C 219.275 338.218, 218.793 338.362, 218.011 340.305 C 217.525 341.512, 217.098 341.911, 217.063 341.191 C 217.029 340.471, 216.502 340.190, 215.892 340.567 C 215.184 341.004, 215.769 342.097, 217.511 343.594 C 219.273 345.108, 220.017 346.512, 219.615 347.561 C 219.194 348.658, 219.639 349.354, 220.985 349.706 C 222.081 349.993, 222.750 350.595, 222.472 351.045 C 222.195 351.494, 222.432 352.149, 223 352.500 C 223.568 352.851, 223.769 353.564, 223.447 354.085 C 223.125 354.606, 220.890 352.438, 218.480 349.266 C 212.279 341.105, 207.206 335.460, 206.610 336.057 C 206.329 336.337, 207.593 340.152, 209.417 344.533 C 211.242 348.915, 215.063 358.125, 217.908 365 C 222.517 376.135, 229.887 399.694, 234.487 418 C 235.386 421.575, 236.567 426.209, 237.112 428.297 L 238.103 432.095 248.537 431.928 C 254.275 431.836, 258.757 431.416, 258.496 430.994 C 258.235 430.572, 258.640 429.714, 259.394 429.088 C 260.449 428.212, 260.906 428.313, 261.372 429.526 C 261.721 430.436, 261.559 430.845, 260.989 430.493 C 260.445 430.157, 260 430.330, 260 430.878 C 260 431.510, 268.763 431.907, 283.935 431.964 L 307.870 432.052 308.556 427.477 C 308.933 424.960, 309.863 422.280, 310.621 421.522 C 312.509 419.634, 312.353 419, 310 419 C 307.939 419, 307.631 418.245, 307.985 414.069 C 308.241 411.041, 310.914 406.829, 312.109 407.568 C 313.683 408.540, 313.027 398.732, 311 391 C 308.833 382.730, 308.511 374.835, 310.066 368.089 C 310.625 365.663, 311.114 355.088, 311.153 344.589 C 311.218 327.038, 311.040 325.017, 308.942 319.500 C 306.931 314.212, 305.564 302.611, 307.060 303.537 C 307.369 303.728, 308.399 299.297, 309.350 293.692 C 310.301 288.086, 311.669 280.800, 312.390 277.500 C 314.468 267.979, 312.739 266.472, 306.959 272.767 M 463 295 C 462.411 296.100, 462.070 297, 462.243 297 C 462.415 297, 463.326 296.100, 464.268 295 C 465.210 293.900, 465.551 293, 465.025 293 C 464.500 293, 463.589 293.900, 463 295 M 453.750 299.080 C 452.788 299.641, 452.052 301.090, 452.116 302.300 C 452.205 303.992, 452.338 304.096, 452.689 302.750 C 453.266 300.544, 454.624 300.506, 455.831 302.663 C 456.656 304.137, 456.839 304.081, 457.445 302.172 C 458.604 298.522, 457.005 297.184, 453.750 299.080 M 445.458 303.068 C 445.095 303.656, 444.168 303.895, 443.399 303.600 C 442.629 303.304, 442 303.499, 442 304.031 C 442 304.564, 440.901 305, 439.557 305 C 438.165 305, 436.443 305.957, 435.557 307.223 C 434.701 308.445, 434 309.104, 434 308.687 C 434 308.271, 433.087 308.418, 431.972 309.015 C 430.857 309.612, 430.205 310.523, 430.524 311.039 C 430.852 311.569, 430.357 311.691, 429.388 311.319 C 428.137 310.838, 427.892 311.016, 428.485 311.975 C 429.102 312.973, 428.660 313.168, 426.649 312.784 C 424.833 312.437, 424 312.705, 424 313.639 C 424 314.424, 425.058 315, 426.500 315 C 428.056 315, 429 315.567, 429 316.500 C 429 317.325, 429.450 318, 430 318 C 430.550 318, 431 317.100, 431 316 C 431 314.900, 431.650 314, 432.445 314 C 433.240 314, 434.508 312.762, 435.262 311.250 C 436.016 309.738, 437.184 308.619, 437.857 308.764 C 438.530 308.908, 440.029 308.520, 441.187 307.900 C 442.884 306.992, 443.469 307.086, 444.196 308.386 C 445.527 310.763, 447.334 310.341, 448.734 307.326 C 449.641 305.372, 449.675 304.314, 448.862 303.334 C 447.525 301.723, 446.346 301.631, 445.458 303.068 M 410 312.769 C 407.662 314.026, 407.792 314.077, 412 313.569 C 414.475 313.270, 415.919 313.288, 415.208 313.610 C 414.153 314.088, 414.153 314.480, 415.208 315.754 C 416.352 317.135, 416.042 317.247, 412.500 316.729 C 410.300 316.407, 409.332 316.378, 410.349 316.664 C 411.695 317.043, 412.070 317.856, 411.726 319.650 C 411.349 321.624, 411.579 321.982, 412.878 321.445 C 413.770 321.075, 415.205 320.568, 416.067 320.318 C 417.189 319.992, 417.506 318.992, 417.182 316.789 C 416.867 314.642, 417.078 313.930, 417.882 314.427 C 418.515 314.818, 418.793 315.526, 418.500 316 C 418.207 316.474, 418.425 317.144, 418.984 317.490 C 419.562 317.847, 420 317.104, 420 315.766 C 420 312.592, 413.791 310.731, 410 312.769 M 403.513 314.021 C 404.033 314.863, 400.938 316.239, 399.354 315.870 C 398.309 315.627, 393.451 316.803, 389.793 318.185 C 388.304 318.747, 386.729 319.193, 386.293 319.177 C 385.857 319.160, 384.038 320.050, 382.250 321.155 C 380.462 322.259, 379 322.846, 379 322.459 C 379 322.072, 378.438 322.199, 377.750 322.741 C 377.063 323.284, 375.825 323.761, 375 323.802 C 374.175 323.843, 371.725 324.327, 369.555 324.877 C 367.386 325.427, 365.253 325.656, 364.817 325.387 C 364.380 325.117, 364.274 325.550, 364.580 326.348 C 364.898 327.176, 364.570 327.776, 363.819 327.743 C 360.017 327.576, 355.744 328.078, 356.293 328.626 C 357.884 330.217, 363.367 329.875, 365.969 328.022 C 367.485 326.943, 369.002 326.335, 369.339 326.672 C 369.676 327.009, 370.750 326.658, 371.726 325.893 C 373.349 324.619, 373.380 324.653, 372.090 326.296 C 371.314 327.283, 370.096 327.867, 369.383 327.594 C 368.340 327.193, 368.321 327.609, 369.282 329.719 C 370.219 331.776, 370.210 332.430, 369.238 332.754 C 367.834 333.222, 367.530 336, 368.883 336 C 369.762 336, 371.331 332.230, 371.090 330.696 C 370.955 329.836, 374.141 326.332, 374.679 326.750 C 375.710 327.552, 376.845 326.713, 377.383 324.750 C 377.889 322.905, 378.170 322.765, 378.947 323.974 C 379.559 324.925, 379.526 325.675, 378.855 326.089 C 378.284 326.443, 378.941 326.947, 380.317 327.210 C 382.037 327.539, 382.669 327.300, 382.341 326.445 C 382.078 325.762, 382.414 324.862, 383.086 324.447 C 383.945 323.916, 384.052 324.110, 383.447 325.095 C 382.876 326.027, 383.413 325.908, 385.043 324.743 C 386.394 323.777, 388.537 322.247, 389.804 321.342 C 391.072 320.438, 393.547 319.717, 395.304 319.739 C 397.062 319.761, 397.951 319.571, 397.279 319.316 C 396.321 318.952, 396.320 318.573, 397.274 317.552 C 397.943 316.836, 398.995 316.445, 399.613 316.682 C 400.231 316.919, 402.255 316.494, 404.111 315.736 C 407.236 314.461, 407.319 314.317, 405.241 313.773 C 404.007 313.451, 403.229 313.562, 403.513 314.021 M 421.232 317 C 421.232 318.925, 421.438 319.712, 421.689 318.750 C 421.941 317.788, 421.941 316.212, 421.689 315.250 C 421.438 314.288, 421.232 315.075, 421.232 317 M 423.446 317.087 C 423.077 317.685, 423.180 318.580, 423.675 319.075 C 424.210 319.610, 424.637 319.168, 424.726 317.988 C 424.893 315.768, 424.453 315.458, 423.446 317.087 M 431.607 317.582 C 430.717 319.901, 430.862 321, 432.059 321 C 432.641 321, 432.840 320.550, 432.500 320 C 432.160 319.450, 432.809 319, 433.941 319 C 435.105 319, 436 318.348, 436 317.500 C 436 315.503, 432.379 315.570, 431.607 317.582 M 400.113 322.915 C 398.103 324.431, 397.995 324.784, 399.378 325.315 C 400.393 325.704, 401 325.419, 401 324.552 C 401 323.790, 401.563 322.966, 402.250 322.720 C 402.938 322.475, 403.268 322.018, 402.985 321.705 C 402.702 321.393, 401.409 321.937, 400.113 322.915 M 459.750 322.689 C 456.585 323.516, 457.922 324.727, 462 324.727 C 466.084 324.727, 467.259 323.697, 464.418 322.607 C 462.744 321.965, 462.508 321.969, 459.750 322.689 M 426.015 324.750 C 426.024 325.749, 426.351 326.071, 426.777 325.500 C 427.187 324.950, 427.931 324.163, 428.428 323.750 C 428.926 323.337, 428.583 323, 427.667 323 C 426.740 323, 426.007 323.777, 426.015 324.750 M 427 328 C 427 328.550, 426.401 329, 425.669 329 C 424.543 329, 423.523 330.439, 421.238 335.250 C 421.042 335.663, 421.569 336, 422.410 336 C 423.357 336, 423.718 335.430, 423.362 334.500 C 423.045 333.675, 423.311 333, 423.952 333 C 424.593 333, 424.860 332.582, 424.544 332.072 C 424.229 331.562, 424.877 330.856, 425.985 330.505 C 427.698 329.961, 428.977 327, 427.500 327 C 427.225 327, 427 327.450, 427 328 M 303.823 329 C 303.462 329.825, 302.875 331.822, 302.517 333.438 C 301.324 338.834, 292.415 356.460, 286.235 365.651 C 279.938 375.016, 271.876 382.982, 268.684 382.994 C 266.639 383.001, 263.287 384.573, 260.908 386.641 C 259.536 387.833, 259.482 388.679, 260.517 392.762 C 262.026 398.714, 264.131 399.305, 265.928 394.282 C 267.253 390.581, 277.303 380.138, 279.630 380.045 C 281.824 379.958, 297.129 357.523, 302.591 346.390 C 304.675 342.142, 305.046 340.118, 304.788 334.390 C 304.618 330.600, 304.184 328.175, 303.823 329 M 396.218 329.154 C 396.737 330.712, 398.974 330.984, 399.053 329.500 C 399.082 328.950, 398.355 328.345, 397.438 328.154 C 396.395 327.939, 395.938 328.313, 396.218 329.154 M 452.114 329.363 C 451.198 330.466, 451.461 330.635, 453.491 330.246 C 454.871 329.983, 456 329.369, 456 328.883 C 456 327.517, 453.377 327.840, 452.114 329.363 M 402.575 331.145 C 401.516 332.165, 401.066 332.993, 401.575 332.985 C 403.205 332.958, 405.256 331.263, 404.872 330.261 C 404.667 329.727, 403.634 330.125, 402.575 331.145 M 433.070 333.250 C 433.032 334.762, 433.450 336, 434 336 C 435.174 336, 435.174 335.231, 434 332.500 C 433.238 330.728, 433.133 330.813, 433.070 333.250 M 350 332.544 C 350 332.660, 350.675 333.315, 351.500 334 C 352.717 335.010, 353 334.970, 353 333.789 C 353 332.988, 352.325 332.333, 351.500 332.333 C 350.675 332.333, 350 332.428, 350 332.544 M 355.658 333.826 C 354.772 334.804, 353.912 336.481, 353.745 337.552 C 353.578 338.624, 353.045 340.175, 352.560 341 C 352.075 341.825, 352.792 341.488, 354.153 340.250 C 356.988 337.674, 359.212 337.283, 358.357 339.511 C 357.942 340.593, 358.236 340.847, 359.389 340.404 C 360.275 340.064, 361 339.201, 361 338.487 C 361 337.680, 361.758 337.385, 363 337.710 C 365.260 338.301, 365.618 339.570, 363.750 340.367 C 363.063 340.660, 363.974 340.689, 365.775 340.431 C 368.279 340.073, 369.221 340.388, 369.775 341.768 C 370.468 343.493, 370.577 343.495, 372.227 341.810 C 373.863 340.139, 373.863 339.999, 372.227 339.150 C 371.277 338.658, 369.504 338.417, 368.286 338.616 C 366.543 338.900, 366.204 338.607, 366.695 337.238 C 367.038 336.282, 366.963 335.822, 366.528 336.215 C 366.093 336.608, 364.924 336.494, 363.929 335.962 C 362.749 335.331, 361.906 335.343, 361.502 335.997 C 360.676 337.333, 357 337.287, 357 335.941 C 357 335.359, 357.450 335.160, 358 335.500 C 358.550 335.840, 359 335.443, 359 334.618 C 359 332.257, 357.417 331.882, 355.658 333.826 M 436 335.531 C 436 336.339, 435.564 337, 435.031 337 C 434.499 337, 434.300 337.617, 434.589 338.371 C 435.287 340.190, 432.409 342.971, 429.679 343.116 C 428.222 343.194, 428.032 343.374, 429.105 343.661 C 429.988 343.898, 431.316 345.222, 432.055 346.604 C 433.135 348.621, 433.901 348.991, 435.940 348.479 C 437.337 348.128, 438.768 347.376, 439.119 346.808 C 439.523 346.153, 439.983 346.274, 440.370 347.137 C 440.706 347.887, 440.730 347.485, 440.422 346.245 C 440.052 344.757, 440.381 343.791, 441.388 343.405 C 442.478 342.986, 442.748 341.988, 442.332 339.910 C 441.888 337.688, 442.120 337, 443.316 337 C 444.177 337, 445.203 336.480, 445.595 335.845 C 446.038 335.130, 445.870 334.962, 445.155 335.405 C 444.520 335.797, 444 335.641, 444 335.059 C 444 334.477, 443.523 334, 442.941 334 C 442.359 334, 442.160 334.450, 442.500 335 C 442.840 335.550, 442.641 336, 442.059 336 C 441.477 336, 441 336.675, 441 337.500 C 441 338.325, 440.523 339, 439.941 339 C 439.359 339, 439.156 339.444, 439.492 339.987 C 439.828 340.530, 439.227 341.914, 438.157 343.062 C 435.822 345.568, 434.013 343.820, 436.215 341.187 C 436.992 340.259, 437.583 338.825, 437.530 338 C 437.477 337.175, 437.823 336.225, 438.300 335.889 C 438.777 335.553, 438.455 335.005, 437.584 334.671 C 436.582 334.286, 436 334.602, 436 335.531 M 374.695 336.943 C 374.991 338.074, 375.631 339, 376.117 339 C 377.465 339, 377.170 337.386, 375.579 336.065 C 374.412 335.097, 374.254 335.255, 374.695 336.943 M 395.430 335.682 C 393.766 336.011, 393.445 336.672, 393.793 339.046 C 394.276 342.335, 394.381 342.401, 396.941 341.032 C 398.573 340.158, 399.649 334.804, 398.125 335.136 C 397.781 335.211, 396.568 335.457, 395.430 335.682 M 423.187 338.472 C 420.684 339.852, 420.585 341.484, 423 341.527 C 424.469 341.553, 426.905 339.234, 426.968 337.750 C 427.011 336.742, 425.959 336.943, 423.187 338.472 M 429 338.622 C 429 339.951, 429.271 340.020, 430.500 339 C 431.325 338.315, 432 337.585, 432 337.378 C 432 337.170, 431.325 337, 430.500 337 C 429.675 337, 429 337.730, 429 338.622 M 380.545 339.859 C 379.876 341.966, 380.779 345, 382.076 345 C 382.549 345, 382.657 344.269, 382.314 343.376 C 381.939 342.399, 382.350 341.384, 383.346 340.827 C 385.590 339.571, 385.435 338, 383.067 338 C 382.004 338, 380.869 338.837, 380.545 339.859 M 374.768 342.435 C 374.289 344.939, 375.433 347.900, 376.476 346.857 C 376.798 346.535, 377.466 344.861, 377.961 343.136 C 378.733 340.444, 378.604 340, 377.047 340 C 375.919 340, 375.057 340.921, 374.768 342.435 M 417 341.895 C 417 342.387, 415.883 343.850, 414.517 345.145 C 411.311 348.186, 411.364 349.016, 414.750 348.810 C 418.718 348.569, 419.322 348.013, 417.637 346.151 C 416.279 344.649, 416.431 344.500, 419.322 344.500 C 421.070 344.500, 422.971 344.808, 423.548 345.184 C 424.124 345.560, 425.173 345.511, 425.878 345.075 C 427.486 344.082, 421.725 342.785, 419.500 343.639 C 418.407 344.058, 418.152 343.768, 418.596 342.611 C 418.936 341.725, 418.716 341, 418.107 341 C 417.498 341, 417 341.403, 417 341.895 M 383.738 344.894 C 383.420 346.109, 383.727 346.716, 384.592 346.589 C 386.528 346.305, 387.603 345.003, 385.917 344.985 C 384.750 344.972, 384.765 344.798, 386 344 C 387.304 343.157, 387.287 343.029, 385.867 343.015 C 384.968 343.007, 384.010 343.852, 383.738 344.894 M 373.125 349.766 C 372.199 351.497, 372.297 352.067, 373.651 352.824 C 375.171 353.675, 375.129 354.055, 373.157 357.246 C 371.050 360.655, 370.254 365.026, 371.750 364.974 C 372.471 364.949, 374.867 360.241, 376.826 355 C 377.949 351.995, 378.156 350.915, 377.543 351.250 C 377.292 351.387, 376.451 350.631, 375.675 349.570 C 374.290 347.676, 374.242 347.680, 373.125 349.766 M 351.500 351 C 351.160 351.550, 351.160 352.450, 351.500 353 C 352.499 354.616, 350.365 354.145, 348.948 352.437 C 347.773 351.022, 347.564 351.027, 346.746 352.489 C 346.175 353.510, 346.251 354.597, 346.953 355.443 C 348.625 357.458, 352.982 355.154, 352.992 352.250 C 353.001 349.831, 352.488 349.401, 351.500 351 M 364 351.580 C 364 353.693, 366.075 354.353, 367.678 352.751 C 368.993 351.436, 368.866 351.208, 366.582 350.771 C 364.875 350.445, 364 350.719, 364 351.580 M 336.750 353.531 C 334.490 356.560, 334.535 357.319, 336.900 356.053 C 338.319 355.294, 338.936 355.391, 339.337 356.436 C 339.632 357.205, 339.227 358.083, 338.437 358.386 C 337.647 358.689, 337 359.912, 337 361.103 C 337 363.235, 337.031 363.231, 338.907 360.845 C 340.071 359.366, 340.773 356.980, 340.709 354.722 C 340.651 352.687, 340.298 351.518, 339.923 352.124 C 339.481 352.839, 339.112 352.868, 338.871 352.206 C 338.667 351.644, 337.712 352.241, 336.750 353.531 M 428.265 352.906 C 428.632 354.308, 428.147 354.930, 426.432 355.258 C 425.049 355.522, 423.889 355.153, 423.581 354.352 C 423.296 353.608, 423.574 353, 424.198 353 C 424.822 353, 425.064 352.731, 424.736 352.403 C 423.815 351.482, 418 355.257, 418 356.775 C 418 357.513, 417.550 357.840, 417 357.500 C 416.450 357.160, 416 357.359, 416 357.941 C 416 358.523, 416.337 359, 416.750 359.001 C 417.163 359.001, 417.565 360.126, 417.644 361.501 C 417.724 362.875, 417.434 364, 417.001 364 C 416.568 364, 415.946 364.698, 415.618 365.552 C 415.291 366.406, 415.421 366.858, 415.907 366.558 C 416.393 366.257, 417.063 366.721, 417.395 367.588 C 418.302 369.950, 418.237 369.997, 415 369.350 C 412.023 368.755, 411.484 369.350, 411.925 372.750 C 412.015 373.438, 411.565 374, 410.927 374 C 410.289 374, 409.976 374.801, 410.232 375.780 C 410.488 376.758, 410.016 378.196, 409.183 378.974 C 408.134 379.954, 408.026 380.509, 408.834 380.778 C 409.475 380.992, 410 382.479, 410 384.083 C 410 388.167, 411.880 387.716, 413.651 383.207 C 414.891 380.051, 415.665 379.375, 418.268 379.176 C 422.159 378.880, 422.614 378.445, 421.030 376.536 C 420.006 375.302, 420.063 374.913, 421.339 374.423 C 422.200 374.093, 423.376 374.114, 423.952 374.470 C 424.528 374.827, 425 374.627, 425 374.028 C 425 373.428, 424.400 372.707, 423.667 372.426 C 421.542 371.610, 422.018 368.871, 424.167 369.553 C 425.541 369.989, 426 369.617, 426 368.067 C 426 366.647, 426.644 366, 428.059 366 C 429.191 366, 429.840 365.550, 429.500 365 C 429.160 364.450, 427.982 364, 426.882 364 C 425.782 364, 425.160 363.550, 425.500 363 C 425.840 362.450, 426.965 362, 428 362 C 429.035 362, 430.204 361.479, 430.597 360.842 C 431.088 360.049, 430.634 359.862, 429.156 360.249 C 427.970 360.559, 427 360.405, 427 359.906 C 427 359.408, 427.867 359, 428.927 359 C 429.988 359, 431.790 357.811, 432.933 356.359 C 435.384 353.242, 434.266 351, 430.261 351 C 428.300 351, 427.873 351.408, 428.265 352.906 M 413.079 353.281 C 412.964 355.883, 416.021 356.691, 417.634 354.485 C 418.374 353.474, 418.697 352.388, 418.353 352.073 C 418.008 351.758, 417.525 352.063, 417.280 352.750 C 417.034 353.438, 416.233 354, 415.500 354 C 414.767 354, 413.940 353.438, 413.662 352.750 C 413.366 352.015, 413.125 352.234, 413.079 353.281 M 382.908 356.056 C 380.698 358.486, 380.550 359.005, 381.908 359.570 C 383.037 360.040, 383.136 360.369, 382.250 360.700 C 381.563 360.957, 381 361.852, 381 362.690 C 381 363.634, 380.429 363.995, 379.500 363.638 C 378.675 363.322, 378 363.499, 378 364.031 C 378 364.564, 378.450 365, 379 365 C 379.550 365, 380 365.702, 380 366.559 C 380 367.416, 379.550 367.840, 379 367.500 C 378.450 367.160, 378 367.359, 378 367.941 C 378 368.523, 378.450 369, 379 369 C 379.550 369, 380.014 369.788, 380.032 370.750 C 380.061 372.339, 380.198 372.323, 381.521 370.573 C 383.629 367.787, 384.516 369.412, 383.210 373.666 C 382.001 377.606, 382.682 380.319, 384.200 377.607 C 384.708 376.700, 385.545 376.219, 386.061 376.538 C 386.578 376.857, 387 376.641, 387 376.059 C 387 375.477, 386.212 374.986, 385.250 374.968 C 383.665 374.939, 383.651 374.821, 385.099 373.718 C 386.705 372.495, 387 371.908, 387 369.933 C 387 369.299, 387.864 369.140, 389.125 369.540 C 390.555 369.994, 391.027 369.852, 390.566 369.107 C 390.190 368.498, 390.359 368, 390.941 368 C 391.523 368, 392 367.592, 392 367.094 C 392 366.595, 391.101 366.422, 390.002 366.710 C 388.221 367.176, 388.067 366.867, 388.588 363.866 C 388.910 362.015, 389.345 359.938, 389.555 359.250 C 389.765 358.563, 389.276 358, 388.469 358 C 387.661 358, 386.944 357.550, 386.875 357 C 386.560 354.479, 386.470 354.138, 386 353.686 C 385.725 353.422, 384.333 354.489, 382.908 356.056 M 225.700 358.750 C 226.488 360.916, 231.917 369, 232.583 369 C 232.851 369, 232.605 368.130, 232.035 367.066 C 231.466 366.002, 231 364.175, 231 363.007 C 231 361.838, 230.550 361.160, 230 361.500 C 229.450 361.840, 229 361.609, 229 360.988 C 229 359.836, 226.584 357, 225.603 357 C 225.306 357, 225.349 357.788, 225.700 358.750 M 419.250 359.662 C 417.509 360.365, 417.684 362, 419.500 362 C 420.325 362, 421 361.523, 421 360.941 C 421 360.359, 421.520 360.203, 422.155 360.595 C 422.870 361.038, 423.038 360.870, 422.595 360.155 C 421.840 358.933, 421.267 358.848, 419.250 359.662 M 345.268 361.303 C 345.589 363.797, 347.403 363.939, 347.790 361.500 C 348.028 359.999, 347.875 359.840, 347.175 360.863 C 346.387 362.014, 346.148 362.014, 345.639 360.863 C 345.257 360.001, 345.121 360.163, 345.268 361.303 M 337.473 368.309 C 336.059 372.919, 336.230 387.243, 337.705 387.735 C 338.558 388.019, 338.910 385.651, 338.957 379.315 C 339.075 363.361, 339.050 363.171, 337.473 368.309 M 438 366 C 436.667 366.862, 436.667 366.969, 438 366.969 C 438.825 366.969, 440.175 366.533, 441 366 C 442.333 365.138, 442.333 365.031, 441 365.031 C 440.175 365.031, 438.825 365.467, 438 366 M 372.459 367.067 C 372.096 367.653, 372.040 368.373, 372.333 368.667 C 373.050 369.383, 375 368.121, 375 366.941 C 375 365.663, 373.274 365.748, 372.459 367.067 M 439.495 369.008 C 439.153 369.562, 439.532 370.675, 440.339 371.482 C 441.628 372.771, 441.879 372.759, 442.406 371.384 C 443.438 368.695, 440.946 366.661, 439.495 369.008 M 369.177 371.667 C 369.657 374.142, 371.666 374.384, 372.279 372.041 C 372.684 370.494, 372.334 370, 370.833 370 C 369.522 370, 368.963 370.563, 369.177 371.667 M 374 373.933 C 374 374.446, 373.067 375.161, 371.928 375.523 C 370.768 375.891, 370.077 376.758, 370.358 377.492 C 370.970 379.086, 367.556 380.156, 366.197 378.797 C 365.569 378.169, 364.955 378.264, 364.458 379.067 C 363.991 379.824, 364.101 380.055, 364.741 379.660 C 365.318 379.303, 366.037 379.655, 366.339 380.441 C 366.641 381.227, 366.350 382.069, 365.694 382.310 C 364.780 382.647, 364.775 383.043, 365.673 383.998 C 366.604 384.988, 367.462 384.807, 369.827 383.123 C 371.467 381.955, 373.639 380.993, 374.654 380.985 C 376.068 380.973, 376.183 380.768, 375.147 380.112 C 374.085 379.439, 374.042 378.791, 374.947 377.099 C 375.581 375.914, 376.453 375.162, 376.884 375.428 C 377.314 375.694, 377.667 375.257, 377.667 374.456 C 377.667 373.655, 376.842 373, 375.833 373 C 374.825 373, 374 373.420, 374 373.933 M 379 374.640 C 379 375.542, 378.259 376.821, 377.354 377.483 C 375.912 378.537, 376.006 378.661, 378.104 378.473 C 379.422 378.355, 380.372 377.703, 380.215 377.024 C 380.058 376.345, 380.451 375.162, 381.087 374.395 C 381.997 373.299, 381.897 373, 380.622 373 C 379.730 373, 379 373.738, 379 374.640 M 454 373.893 C 454 374.384, 454.712 375.059, 455.582 375.393 C 458.029 376.332, 458.271 376.128, 456.643 374.500 C 454.943 372.800, 454 372.583, 454 373.893 M 438.010 377.488 C 437.331 378.306, 436.607 381.343, 436.402 384.238 C 436.196 387.132, 435.574 391.525, 435.021 394 C 434.467 396.475, 434.123 400.638, 434.257 403.250 C 434.391 405.863, 434.258 408, 433.963 408 C 433.042 408, 433.069 412.051, 434.006 414.515 C 434.625 416.143, 434.530 416.990, 433.700 417.268 C 432.916 417.530, 432.500 420.151, 432.500 424.832 L 432.500 431.995 449.380 431.998 L 466.260 432 465.747 427.446 C 465.464 424.941, 464.516 422.353, 463.639 421.696 C 461.615 420.178, 460.205 410, 462.019 410 C 462.977 410, 462.982 409.683, 462.040 408.548 C 461.352 407.719, 461.131 406.163, 461.524 404.923 C 461.960 403.550, 461.715 402.400, 460.857 401.799 C 459.854 401.096, 459.811 400.720, 460.694 400.359 C 461.350 400.091, 461.640 399.225, 461.337 398.435 C 461.034 397.646, 461.284 397, 461.893 397 C 464.344 397, 462.796 394.909, 459.919 394.334 C 457.813 393.913, 457.251 393.463, 458.141 392.913 C 459.143 392.293, 459.033 391.950, 457.665 391.425 C 456.686 391.049, 456.120 390.130, 456.407 389.383 C 456.693 388.636, 456.607 388.072, 456.214 388.130 C 455.821 388.189, 455.050 388.132, 454.500 388.003 C 453.950 387.874, 452.825 387.709, 452 387.635 C 450.873 387.534, 450.500 386.189, 450.501 382.230 C 450.502 377.766, 450.311 377.221, 449.251 378.671 C 448.563 379.612, 448 380.746, 448 381.191 C 448 382.555, 444.066 382.090, 441.525 380.425 C 440.136 379.514, 439.351 378.248, 439.667 377.425 C 440.378 375.574, 439.573 375.604, 438.010 377.488 M 460.294 378.417 C 460.272 379.012, 460.085 380.017, 459.877 380.650 C 459.670 381.283, 459.837 381.845, 460.250 381.900 C 460.663 381.955, 461.044 381.663, 461.099 381.250 C 461.153 380.837, 461.579 379.788, 462.045 378.917 C 462.612 377.856, 462.470 377.333, 461.613 377.333 C 460.909 377.333, 460.316 377.821, 460.294 378.417 M 357.079 382.250 C 357.132 383.753, 357.347 384.002, 357.729 383 C 358.043 382.175, 358.795 381.169, 359.400 380.765 C 360.078 380.312, 359.829 380.025, 358.750 380.015 C 357.574 380.005, 357.026 380.738, 357.079 382.250 M 417.753 386.390 C 416.793 387.119, 415.717 389.242, 415.363 391.108 C 415.008 392.973, 414.330 395.260, 413.856 396.189 C 413.338 397.206, 413.396 398.127, 414.004 398.503 C 415.164 399.220, 415.975 397.512, 416.410 393.438 C 416.576 391.875, 417.299 390.400, 418.016 390.161 C 418.889 389.870, 419.105 390.284, 418.671 391.415 C 418.288 392.413, 418.427 392.854, 419.011 392.493 C 419.555 392.157, 420 392.522, 420 393.304 C 420 394.142, 420.915 394.680, 422.226 394.613 C 423.759 394.535, 424.768 393.565, 425.463 391.500 C 426.019 389.850, 426.930 388.133, 427.487 387.684 C 428.046 387.234, 427.580 387.124, 426.448 387.439 C 425.319 387.753, 423.519 387.347, 422.448 386.536 C 420.071 384.739, 419.933 384.735, 417.753 386.390 M 459 386 C 459 386.550, 459.423 387, 459.941 387 C 460.459 387, 461.160 386.550, 461.500 386 C 461.840 385.450, 461.416 385, 460.559 385 C 459.702 385, 459 385.450, 459 386 M 378.250 388.689 C 379.212 388.941, 380.788 388.941, 381.750 388.689 C 382.712 388.438, 381.925 388.232, 380 388.232 C 378.075 388.232, 377.288 388.438, 378.250 388.689 M 337.847 390.579 C 337.103 392.002, 336.771 399, 337.448 399 C 338.710 399, 339.907 393.922, 339.136 391.839 C 338.692 390.639, 338.113 390.072, 337.847 390.579 M 378.325 390.658 C 378.687 391.020, 378.481 391.920, 377.869 392.658 C 377.008 393.696, 377.161 394, 378.544 394 C 379.528 394, 380.037 393.704, 379.675 393.342 C 379.313 392.980, 379.519 392.080, 380.131 391.342 C 380.992 390.304, 380.839 390, 379.456 390 C 378.472 390, 377.963 390.296, 378.325 390.658 M 353 398.500 C 353 399.530, 353.655 400.020, 354.750 399.810 C 356.858 399.404, 356.725 397.629, 354.553 397.177 C 353.647 396.988, 353 397.539, 353 398.500 M 336.694 400.639 C 335.895 401.438, 336.798 403, 338.059 403 C 338.577 403, 339 402.325, 339 401.500 C 339 399.954, 337.820 399.513, 336.694 400.639 M 420 402.031 C 420 402.564, 420.417 403, 420.927 403 C 421.436 403, 422.059 403.788, 422.311 404.750 C 422.671 406.130, 422.792 406.047, 422.884 404.357 C 422.948 403.178, 422.325 401.955, 421.500 401.638 C 420.675 401.322, 420 401.499, 420 402.031 M 270.708 405.760 C 268.778 406.194, 269.006 408.047, 271.620 413.187 C 273.957 417.782, 275 417.472, 275 412.181 C 275 406.989, 273.725 405.082, 270.708 405.760 M 418 413.059 C 418 414.191, 418.450 414.840, 419 414.500 C 419.550 414.160, 420 413.234, 420 412.441 C 420 411.648, 419.550 411, 419 411 C 418.450 411, 418 411.927, 418 413.059 M 250.667 419.667 C 250.300 420.033, 250 422.090, 250 424.238 C 250 428.512, 251.990 431.325, 254.369 430.412 C 255.573 429.950, 255.677 429.280, 254.873 427.165 C 254.315 425.699, 253.899 424.385, 253.948 424.246 C 253.996 424.106, 253.754 422.868, 253.410 421.496 C 252.782 418.996, 251.915 418.418, 250.667 419.667 M 363.386 421.765 C 362.774 422.169, 362.570 423.330, 362.933 424.345 C 363.520 425.986, 363.723 425.903, 364.775 423.595 C 365.956 421.002, 365.485 420.381, 363.386 421.765"
        stroke="none" fill="#e6b18c" fill-rule="evenodd" />
    <path
        d="M 228.849 65.388 C 226.290 66.077, 223.070 67.380, 221.691 68.283 C 219.670 69.607, 219.086 69.665, 218.671 68.584 C 218.388 67.847, 218.459 66.836, 218.828 66.337 C 219.198 65.839, 218.553 66.408, 217.395 67.603 C 216.237 68.797, 214.289 70.310, 213.066 70.965 C 211.843 71.619, 210.384 73.470, 209.824 75.076 C 209.263 76.683, 208.408 77.752, 207.923 77.453 C 206.339 76.473, 203 79.019, 203 81.206 C 203 82.381, 202.291 84.126, 201.424 85.084 C 200.558 86.041, 199.739 87.573, 199.605 88.487 C 199.055 92.233, 187.245 101.887, 184.948 100.468 C 184.502 100.192, 183.851 100.432, 183.500 101 C 183.149 101.568, 182.456 101.782, 181.960 101.475 C 180.983 100.871, 180.622 102.126, 178.935 112 C 178.324 115.575, 177.447 118.956, 176.986 119.514 C 176.525 120.071, 175.900 123.343, 175.598 126.784 C 175.296 130.226, 174.497 134.044, 173.822 135.271 C 172.065 138.466, 171.917 139.587, 172.077 148.500 C 172.155 152.900, 172.265 160.325, 172.320 165 C 172.378 169.960, 172.892 173.916, 173.554 174.500 C 174.178 175.050, 175.288 178.116, 176.019 181.313 C 177.197 186.459, 177.153 187.674, 175.634 191.896 C 174.094 196.179, 173.971 200.388, 174.428 233.083 C 174.708 253.113, 175.361 272.274, 175.880 275.664 C 176.399 279.054, 178.423 285.750, 180.377 290.543 L 183.930 299.258 176.981 306.798 C 170.104 314.262, 169.848 314.423, 151.767 322.682 C 128.159 333.464, 103.432 342.718, 67.283 354.303 C 54.644 358.353, 35.668 367.124, 29.202 371.904 C 22.900 376.563, 19.682 382.446, 13.891 399.887 C 11.040 408.474, 7.002 419.100, 4.917 423.500 L 1.127 431.500 119.226 431.754 C 184.180 431.894, 237.462 431.871, 237.630 431.703 C 238.037 431.297, 232.199 408.917, 227.142 391.500 C 223.491 378.922, 221.109 372.611, 209.417 344.533 C 207.593 340.152, 206.329 336.337, 206.610 336.057 C 207.206 335.460, 212.279 341.105, 218.480 349.266 C 220.890 352.438, 223.125 354.606, 223.447 354.085 C 223.769 353.564, 223.568 352.851, 223 352.500 C 222.432 352.149, 222.195 351.494, 222.472 351.045 C 222.750 350.595, 222.081 349.993, 220.985 349.706 C 219.639 349.354, 219.194 348.658, 219.615 347.561 C 220.017 346.512, 219.273 345.108, 217.511 343.594 C 215.769 342.097, 215.184 341.004, 215.892 340.567 C 216.502 340.190, 217.029 340.471, 217.063 341.191 C 217.098 341.911, 217.525 341.512, 218.011 340.305 C 218.793 338.362, 219.275 338.218, 222.198 339.055 C 224.014 339.574, 226.719 340.900, 228.210 342 C 229.700 343.100, 231.317 344, 231.805 344 C 233.006 344, 235.809 347.192, 237.833 350.867 C 240.351 355.437, 247.786 362.908, 250.492 363.587 C 253.679 364.387, 254.519 363.724, 254.788 360.194 C 254.958 357.964, 254.520 357.108, 253.003 356.711 C 251.660 356.360, 251.195 355.656, 251.603 354.593 C 251.939 353.717, 251.716 353, 251.107 353 C 250.498 353, 250 352.507, 250 351.904 C 250 351.302, 249.068 349.500, 247.929 347.900 C 246.120 345.359, 246.056 344.916, 247.429 344.389 C 248.293 344.057, 249 343.336, 249 342.786 C 249 342.236, 248.325 342.045, 247.500 342.362 C 245.546 343.111, 245.605 342.484, 247.722 340.011 C 248.669 338.905, 250.271 338, 251.281 338 C 252.291 338, 252.863 337.587, 252.550 337.081 C 252.238 336.576, 253.340 335.865, 255 335.500 C 258.582 334.713, 258.143 333.410, 253.989 332.497 C 250.554 331.743, 250.420 331.437, 252.574 329.283 C 253.857 328, 253.903 327.539, 252.824 326.789 C 251.917 326.159, 252.186 326.061, 253.676 326.478 C 255.026 326.856, 256.164 326.557, 256.676 325.690 C 257.598 324.126, 262.091 321.459, 263.250 321.788 C 264.518 322.147, 264.079 320.204, 262.750 319.572 C 262.063 319.245, 262.512 319.166, 263.750 319.395 C 264.988 319.625, 266 319.386, 266 318.864 C 266 317.088, 268.436 315.301, 270.220 315.768 C 271.199 316.024, 272 315.731, 272 315.117 C 272 314.502, 272.450 314, 273 314 C 274.718 314, 278.108 309.984, 277.382 308.809 C 276.997 308.187, 277.139 307.968, 277.700 308.315 C 278.255 308.658, 279.740 307.841, 281 306.500 C 282.260 305.159, 283.584 304.243, 283.943 304.465 C 284.302 304.687, 285.030 304.560, 285.561 304.184 C 287.210 303.016, 294 292.555, 294 291.182 C 294 290.467, 294.427 290.146, 294.950 290.469 C 295.472 290.792, 296.440 290.031, 297.100 288.778 C 297.759 287.525, 298.582 286.275, 298.927 286 C 299.273 285.725, 300.443 283.483, 301.528 281.017 C 303.667 276.156, 309.680 269, 311.626 269 C 312.290 269, 312.998 269.494, 313.199 270.098 C 313.401 270.702, 314.676 271.018, 316.033 270.800 C 318.351 270.428, 318.278 270.306, 314.830 268.787 C 312.812 267.897, 310.633 266.183, 309.989 264.979 C 308.526 262.245, 308.341 254.523, 309.698 252.793 C 310.935 251.215, 313.278 241.945, 312.609 241.276 C 312.344 241.011, 312.576 239.616, 313.123 238.177 C 313.670 236.737, 314.341 233.497, 314.613 230.976 C 315.845 219.554, 320.438 211.052, 326.090 209.731 C 331.620 208.438, 339.967 204.412, 339.983 203.029 C 340.016 200.197, 342.462 191, 343.182 191 C 343.582 191, 344.212 189.313, 344.581 187.250 C 344.950 185.188, 346.164 181.475, 347.279 179 C 348.394 176.525, 349.429 173.600, 349.580 172.500 C 349.730 171.400, 350.605 166.962, 351.523 162.638 C 353.438 153.622, 353.481 154.090, 348.631 131.500 C 344.617 112.802, 343.706 109.949, 340.959 107.463 C 339.937 106.538, 337.255 102.556, 335.001 98.615 C 331.702 92.849, 329.941 90.911, 325.986 88.688 C 323.283 87.168, 320.821 85.519, 320.515 85.024 C 319.449 83.299, 308.489 77.550, 306.798 77.829 C 305.059 78.116, 300.327 75.613, 298.462 73.419 C 297.892 72.748, 296.092 72.042, 294.462 71.849 C 292.833 71.657, 290.924 70.957, 290.221 70.292 C 289.518 69.628, 288.253 69.349, 287.411 69.672 C 286.508 70.019, 284.713 69.141, 283.030 67.528 C 280.634 65.233, 279.566 64.883, 276.339 65.334 C 274.227 65.630, 271.706 66.176, 270.737 66.548 C 269.756 66.924, 268.247 66.620, 267.334 65.862 C 266.431 65.113, 265.541 64.600, 265.357 64.723 C 265.172 64.845, 264.343 64.685, 263.515 64.367 C 260.683 63.281, 252.391 64.720, 250.289 66.663 C 249.333 67.547, 248.429 67.547, 246.523 66.663 C 245.144 66.023, 244.012 65.093, 244.008 64.595 C 244.004 64.097, 243.173 64.438, 242.163 65.353 C 240.867 66.525, 239.399 66.830, 237.179 66.386 C 235.448 66.040, 234.277 65.361, 234.575 64.878 C 235.255 63.778, 234.615 63.835, 228.849 65.388 M 226.254 67.992 C 224.584 69.007, 222.948 70.276, 222.617 70.811 C 221.707 72.283, 229.761 69.668, 231.503 67.926 C 232.836 66.592, 232.797 66.410, 231.146 66.286 C 230.125 66.209, 227.923 66.977, 226.254 67.992 M 266.356 133.768 C 266.915 134.671, 263.341 135.108, 257 134.910 C 248.823 134.654, 229.969 135.101, 227 135.621 C 225.075 135.957, 222.600 136.293, 221.500 136.366 C 220.400 136.440, 218.535 137.485, 217.355 138.688 C 216.175 139.892, 214.974 140.641, 214.686 140.353 C 213.677 139.343, 211.589 144.538, 211.411 148.500 C 211.312 150.700, 211.438 151.713, 211.689 150.750 C 211.941 149.787, 212.590 149, 213.132 149 C 213.674 149, 213.861 149.416, 213.546 149.925 C 213.232 150.434, 213.525 152.058, 214.198 153.535 C 215.234 155.809, 215.167 156.405, 213.758 157.435 C 211.941 158.763, 212.402 162.989, 214.367 163.015 C 214.990 163.023, 214.375 163.599, 213 164.294 C 211.625 164.990, 210.500 166.071, 210.500 166.696 C 210.500 167.322, 210.162 168.171, 209.750 168.583 C 209.338 168.996, 209 170.185, 209 171.226 C 209 172.266, 208.550 172.840, 208 172.500 C 207.145 171.972, 206.768 173.266, 207.085 175.638 C 207.132 175.989, 206.570 176.688, 205.835 177.192 C 204.850 177.868, 205.016 178.026, 206.471 177.796 C 207.731 177.596, 209.666 178.839, 211.837 181.242 C 213.705 183.309, 215.625 185, 216.105 185 C 217.163 185, 220.562 187.703, 223.293 190.716 C 224.398 191.935, 225.760 192.648, 226.321 192.302 C 226.937 191.921, 227.087 192.330, 226.701 193.336 C 226.346 194.263, 226.547 195, 227.156 195 C 228.704 195, 227.497 200.256, 224.490 206.612 C 223.121 209.507, 221.993 212.467, 221.985 213.188 C 221.967 214.892, 219.409 222.211, 216.936 227.641 C 213.591 234.984, 214.357 245.891, 218.352 247.795 C 222.515 249.779, 224.531 250.275, 227.614 250.074 C 229.350 249.960, 231.420 250.563, 232.292 251.435 C 233.153 252.296, 234.564 253, 235.429 253 C 236.293 253, 237 253.450, 237 254 C 237 254.550, 237.675 255, 238.500 255 C 239.325 255, 240 255.444, 240 255.987 C 240 257.398, 247.884 260.694, 251.809 260.923 C 252.529 260.966, 252.864 261.410, 252.554 261.912 C 252.244 262.414, 252.769 262.710, 253.721 262.570 C 255.467 262.314, 258 265.927, 258 268.673 C 258 269.468, 258.419 269.859, 258.931 269.543 C 259.443 269.226, 260.144 269.425, 260.490 269.984 C 260.835 270.543, 260.704 271, 260.198 271 C 259.691 271, 259.491 272.120, 259.753 273.488 C 260.019 274.879, 260.687 275.693, 261.269 275.334 C 261.893 274.948, 262.007 275.180, 261.554 275.912 C 261.112 276.628, 261.566 277.713, 262.650 278.535 C 263.990 279.550, 264.110 279.945, 263.083 279.968 C 262.304 279.986, 261.956 280.289, 262.309 280.643 C 262.663 280.996, 263.638 280.716, 264.476 280.020 C 265.367 279.280, 266 279.182, 266 279.784 C 266 280.350, 266.907 280.576, 268.015 280.286 C 269.543 279.886, 269.884 280.138, 269.426 281.331 C 268.459 283.851, 258.851 286.279, 256.250 284.660 C 255.563 284.232, 254.993 284.246, 254.985 284.691 C 254.976 285.136, 254.639 285.047, 254.235 284.494 C 253.079 282.913, 246.236 278, 245.189 278 C 244.669 278, 243.617 277.056, 242.852 275.903 C 241.069 273.219, 232.866 272.052, 230.316 274.121 C 229.381 274.879, 228.927 274.982, 229.306 274.348 C 229.804 273.519, 228.251 273.271, 223.748 273.462 C 212.581 273.936, 212.999 273.828, 213.015 276.250 C 213.047 280.899, 213.743 281.255, 225.154 282.445 C 228.813 282.826, 232.564 283.692, 233.489 284.368 C 235.053 285.512, 235.033 285.838, 233.194 289.049 C 232.107 290.947, 231.360 293.326, 231.533 294.336 C 231.833 296.086, 231.757 296.090, 229.924 294.431 C 228.082 292.764, 228 292.782, 228 294.845 C 228 296.201, 228.649 297.029, 229.750 297.079 C 230.795 297.126, 230.997 297.361, 230.250 297.662 C 228.004 298.569, 228.938 299.879, 231.500 299.414 C 233.129 299.119, 234 299.419, 234 300.276 C 234 301.081, 235.436 301.688, 237.702 301.841 C 239.738 301.978, 241.976 302.565, 242.676 303.146 C 244.484 304.646, 251.013 304.932, 254.190 303.650 C 256.556 302.696, 258.411 299.921, 258.117 297.777 C 258.063 297.379, 259.372 297.324, 261.027 297.655 C 263.527 298.155, 263.930 297.982, 263.411 296.629 C 262.993 295.540, 263.319 295, 264.393 295 C 265.319 295, 266 294.174, 266 293.052 C 266 290.640, 270.629 285.386, 271.212 287.136 C 271.445 287.836, 272.154 288.023, 272.877 287.576 C 273.570 287.148, 273.886 286.145, 273.580 285.347 C 273.227 284.428, 273.443 284.156, 274.169 284.604 C 274.949 285.086, 275.135 284.622, 274.750 283.154 C 274.268 281.308, 274.538 281.058, 276.613 281.435 C 277.948 281.677, 278.809 281.500, 278.526 281.042 C 277.893 280.018, 280.048 279.137, 281.742 279.728 C 282.647 280.044, 282.705 280.683, 281.957 282.081 C 281.317 283.277, 281.294 284, 281.897 284 C 283.139 284, 284.323 280.331, 283.507 279.011 C 283.164 278.457, 283.585 277.003, 284.442 275.779 C 285.299 274.556, 286.014 273.993, 286.030 274.527 C 286.047 275.062, 286.521 274.709, 287.085 273.742 C 287.648 272.775, 287.852 271.570, 287.540 271.064 C 287.227 270.558, 287.831 269.871, 288.883 269.537 C 290.188 269.123, 290.632 268.307, 290.281 266.965 C 289.998 265.884, 290.179 265, 290.682 265 C 291.186 265, 292.170 263.418, 292.869 261.484 C 293.569 259.551, 294.554 258.224, 295.059 258.536 C 295.564 258.849, 295.739 258.485, 295.449 257.728 C 295.159 256.971, 296.176 255.070, 297.710 253.503 C 299.245 251.936, 299.861 251.031, 299.079 251.492 C 298.204 252.007, 298.396 251.317, 299.579 249.696 C 300.636 248.248, 301.837 247.049, 302.250 247.031 C 302.663 247.014, 303 246.351, 303 245.557 C 303 244.763, 304 243.413, 305.223 242.557 C 307.212 241.163, 306.993 240.504, 304.676 240.906 C 304.222 240.985, 304.141 240.581, 304.495 240.008 C 304.849 239.436, 305.544 239.218, 306.040 239.525 C 307.013 240.126, 308.589 235.357, 308.142 233.158 C 307.993 232.420, 308.687 231.196, 309.685 230.440 C 310.683 229.683, 311.013 229.049, 310.418 229.032 C 309.723 229.011, 309.495 227.081, 309.780 223.639 C 310.807 211.252, 305.857 191.446, 300.655 187.129 C 299.757 186.383, 299.269 185.374, 299.570 184.887 C 299.871 184.399, 299.604 184, 298.976 184 C 298.347 184, 298.022 183.438, 298.253 182.750 C 298.833 181.025, 293.664 168.750, 290.681 164.767 C 288.968 162.479, 288.313 160.451, 288.498 158 C 288.643 156.075, 288.197 153.825, 287.508 153 C 286.819 152.175, 285.464 149.798, 284.498 147.717 C 283.532 145.636, 281.449 142.551, 279.870 140.861 C 278.292 139.171, 277 137.434, 277 137.001 C 277 136.216, 274.620 134.931, 272.250 134.437 C 271.563 134.294, 271 134.639, 271 135.203 C 271 135.768, 269.820 135.457, 268.377 134.511 C 266.934 133.566, 266.025 133.231, 266.356 133.768 M 293.016 149.970 C 292.386 151.147, 292.071 152.648, 292.316 153.305 C 292.561 153.962, 293.278 153.200, 293.909 151.611 C 295.285 148.145, 294.634 146.947, 293.016 149.970 M 208.751 155.038 C 210.757 156.993, 211.291 156.922, 210.481 154.810 C 210.169 153.998, 209.259 153.333, 208.458 153.333 C 207.297 153.333, 207.357 153.680, 208.751 155.038 M 294 154.566 C 294 156.137, 296.222 158.981, 297.050 158.469 C 297.573 158.146, 298.036 158.696, 298.079 159.691 C 298.122 160.686, 298.380 160.953, 298.651 160.284 C 298.922 159.615, 298.324 157.941, 297.322 156.565 C 295.625 154.235, 294 153.257, 294 154.566 M 257 187.160 C 249.059 188.215, 240.717 191.317, 240.423 193.325 C 240.189 194.916, 241.092 195.281, 245.227 195.269 C 246.259 195.266, 246.668 195.715, 246.243 196.382 C 245.851 196.997, 245.486 197.725, 245.432 198 C 244.994 200.205, 242.886 203.888, 241.815 204.316 C 241.079 204.610, 241.439 204.877, 242.631 204.921 C 244.294 204.983, 245.007 205.972, 245.876 209.424 C 247.020 213.966, 249.516 217.417, 250.995 216.503 C 251.454 216.219, 251.980 216.429, 252.165 216.968 C 252.878 219.054, 256.741 216.710, 258.038 213.403 C 258.782 211.508, 260.202 209.222, 261.195 208.323 C 262.188 207.425, 263 206.085, 263 205.345 C 263 203.810, 264.155 203.593, 265.550 204.867 C 266.566 205.795, 276 209.109, 276 208.538 C 276 207.804, 269.216 204.251, 264.485 202.507 C 258.697 200.373, 256.736 198.989, 259.550 199.024 C 263.799 199.076, 269.469 200.993, 274.361 204.030 C 277.693 206.099, 278.874 206.528, 277.720 205.249 C 276.742 204.164, 274.154 202.471, 271.970 201.487 C 269.787 200.502, 268 199.329, 268 198.880 C 268 198.430, 267.212 198.316, 266.250 198.626 C 264.778 199.099, 264.739 199.020, 266 198.126 C 266.840 197.532, 270.251 197.242, 273.750 197.469 C 277.188 197.692, 280 197.479, 280 196.996 C 280 195.455, 277.865 194.735, 276.713 195.887 C 276.101 196.499, 275.127 196.986, 274.550 196.970 C 273.973 196.953, 274.288 196.481, 275.250 195.920 C 277.661 194.516, 277.444 193, 274.833 193 C 273.642 193, 272.963 192.704, 273.325 192.342 C 274.100 191.567, 272.175 189, 270.819 189 C 270.303 189, 270.203 189.520, 270.595 190.155 C 271.084 190.946, 270.867 191.033, 269.905 190.431 C 269.132 189.948, 268.050 189.497, 267.500 189.429 C 266.950 189.360, 265.600 189.201, 264.500 189.073 C 263.360 188.942, 263.037 188.625, 263.750 188.338 C 264.438 188.060, 265 187.496, 265 187.083 C 265 186.194, 264.220 186.201, 257 187.160 M 206.943 199.944 C 208.134 200.697, 208.171 201.329, 207.157 203.554 C 205.994 206.108, 206.050 206.219, 208.214 205.640 C 209.471 205.303, 211.512 205.021, 212.750 205.014 C 216.275 204.992, 215.425 202.204, 211.378 200.513 C 207.400 198.852, 204.661 198.500, 206.943 199.944 M 335 213 C 335 213.550, 335.471 214, 336.048 214 C 336.624 214, 338.226 215.220, 339.608 216.711 C 341.587 218.846, 342.301 219.131, 342.968 218.052 C 343.911 216.526, 343.216 213.890, 341.573 212.765 C 339.974 211.671, 335 211.848, 335 213 M 194.244 221.152 C 195.150 223.572, 194.033 224.137, 191.646 222.465 C 189.084 220.670, 187.694 220.582, 188.250 222.250 C 188.479 222.938, 189.304 223.510, 190.083 223.522 C 190.899 223.535, 191.366 224.320, 191.183 225.373 C 190.993 226.467, 191.294 226.936, 191.933 226.541 C 193.596 225.514, 193.186 228.671, 191.429 230.429 C 190.564 231.293, 190.339 232, 190.929 232 C 191.518 232, 192 232.648, 192 233.441 C 192 235.492, 193.852 236.368, 195.427 235.061 C 196.438 234.222, 196.910 234.323, 197.352 235.474 C 198.349 238.072, 199.625 237.156, 199.407 234 C 199.268 231.996, 199.664 231, 200.600 231 C 201.370 231, 202 230.502, 202 229.893 C 202 229.284, 201.325 229.045, 200.500 229.362 C 199.675 229.678, 199 229.501, 199 228.969 C 199 228.436, 199.450 228, 200 228 C 200.550 228, 201 227.502, 201 226.893 C 201 226.284, 200.302 226.054, 199.448 226.382 C 198.594 226.709, 198.125 226.606, 198.406 226.153 C 198.686 225.700, 198.523 224.017, 198.043 222.414 C 197.564 220.811, 197.133 220.118, 197.086 220.872 C 197.013 222.036, 196.743 222.036, 195.313 220.872 C 193.845 219.679, 193.706 219.715, 194.244 221.152 M 340.118 229.750 C 340.216 234.482, 340.372 234.969, 341 232.500 C 342.134 228.042, 342.134 224, 341 224 C 340.436 224, 340.052 226.504, 340.118 229.750 M 323.738 228.250 C 324.405 230.974, 325.894 233, 327.231 233 C 328.524 233, 327.209 227.754, 325.671 226.775 C 323.684 225.512, 323.165 225.908, 323.738 228.250 M 327.694 233.639 C 326.895 234.438, 327.798 236, 329.059 236 C 329.577 236, 330 235.325, 330 234.500 C 330 232.954, 328.820 232.513, 327.694 233.639 M 194 237.091 L 191.500 237.801 194.167 237.900 C 195.633 237.955, 197.034 238.563, 197.280 239.250 C 197.525 239.938, 197.976 240.274, 198.281 239.998 C 198.587 239.723, 198.311 238.796, 197.668 237.939 C 196.855 236.854, 195.740 236.597, 194 237.091 M 336.210 243.505 C 335.006 245.983, 333.956 248.345, 333.876 248.755 C 333.796 249.165, 332.884 250.093, 331.849 250.818 C 330.814 251.544, 330.226 252.556, 330.542 253.068 C 331.385 254.432, 333 254.205, 333 252.723 C 333 252.020, 334.376 249.939, 336.059 248.097 C 337.741 246.255, 338.886 244.144, 338.602 243.406 C 338.319 242.668, 338.518 241.798, 339.044 241.473 C 340.203 240.756, 340.314 239, 339.199 239 C 338.759 239, 337.414 241.027, 336.210 243.505 M 231.143 243.890 C 229.164 245.144, 231.365 246.277, 237.246 247.032 C 242.108 247.655, 243.303 246.703, 240.800 244.200 C 239.419 242.819, 233.151 242.618, 231.143 243.890 M 218 261.893 C 218 262.384, 218.675 263.045, 219.500 263.362 C 220.325 263.678, 221 264.899, 221 266.076 C 221 267.545, 221.459 268.038, 222.468 267.651 C 223.275 267.341, 224.232 267.566, 224.593 268.150 C 225.030 268.857, 225.538 268.759, 226.110 267.857 C 226.795 266.776, 226.972 266.766, 226.985 267.809 C 226.993 268.529, 227.450 268.840, 228 268.500 C 228.550 268.160, 229 268.359, 229 268.941 C 229 270.367, 230.117 270.227, 232.372 268.519 C 234.063 267.238, 234.094 266.951, 232.693 265.551 C 231.841 264.698, 230.211 264, 229.071 264 C 227.932 264, 227 263.595, 227 263.100 C 227 262.604, 225.624 262.294, 223.942 262.411 C 222.261 262.527, 220.659 262.258, 220.383 261.811 C 219.708 260.719, 218 260.778, 218 261.893 M 461.500 293.823 C 458.099 295.881, 435.198 304.413, 430.241 305.469 C 428.291 305.884, 427.249 306.594, 427.646 307.236 C 428.011 307.826, 427.874 308.040, 427.341 307.711 C 426.040 306.907, 413 309.931, 413 311.036 C 413 311.516, 414.575 312.205, 416.500 312.566 C 419.368 313.104, 420 313.665, 420 315.670 C 420 317.074, 419.566 317.850, 418.984 317.490 C 418.425 317.144, 418.207 316.474, 418.500 316 C 418.793 315.526, 418.515 314.818, 417.882 314.427 C 417.078 313.930, 416.867 314.642, 417.182 316.789 C 417.506 318.992, 417.189 319.992, 416.067 320.318 C 415.205 320.568, 413.770 321.075, 412.878 321.445 C 411.579 321.982, 411.349 321.624, 411.726 319.650 C 412.070 317.856, 411.695 317.043, 410.349 316.664 C 409.332 316.378, 410.300 316.407, 412.500 316.729 C 416.042 317.247, 416.352 317.135, 415.208 315.754 C 414.153 314.480, 414.153 314.088, 415.208 313.610 C 415.919 313.288, 414.475 313.246, 412 313.517 C 408.303 313.920, 407.927 313.825, 409.895 312.983 C 414.030 311.212, 411.567 310.933, 406.420 312.588 C 403.714 313.459, 400.825 314.429, 400 314.744 C 399.175 315.059, 398.179 315.251, 397.786 315.171 C 397.393 315.090, 397.329 315.694, 397.643 316.512 C 397.975 317.376, 397.645 318.006, 396.857 318.015 C 395.787 318.027, 395.809 318.226, 396.960 318.954 C 398.023 319.627, 397.561 319.854, 395.265 319.788 C 393.529 319.739, 391.072 320.438, 389.804 321.342 C 388.537 322.247, 386.394 323.777, 385.043 324.743 C 383.413 325.908, 382.876 326.027, 383.447 325.095 C 384.052 324.110, 383.945 323.916, 383.086 324.447 C 382.414 324.862, 382.078 325.762, 382.341 326.445 C 382.669 327.300, 382.037 327.539, 380.317 327.210 C 378.941 326.947, 378.284 326.443, 378.855 326.089 C 379.526 325.675, 379.559 324.925, 378.947 323.974 C 378.170 322.765, 377.889 322.905, 377.383 324.750 C 376.845 326.713, 375.710 327.552, 374.679 326.750 C 374.141 326.332, 370.955 329.836, 371.090 330.696 C 371.331 332.230, 369.762 336, 368.883 336 C 367.530 336, 367.834 333.222, 369.238 332.754 C 370.210 332.430, 370.219 331.776, 369.282 329.719 C 368.321 327.609, 368.340 327.193, 369.383 327.594 C 370.096 327.867, 371.257 327.396, 371.962 326.546 C 372.668 325.695, 372.852 324.993, 372.372 324.985 C 371.893 324.976, 372.175 324.533, 373 324 C 374.294 323.164, 374.268 323.029, 372.815 323.015 C 371.888 323.007, 369.863 323.490, 368.315 324.089 C 366.767 324.688, 364.600 325.355, 363.500 325.572 C 362.400 325.789, 360.150 326.243, 358.500 326.581 C 354.097 327.484, 346.830 331.916, 347.630 333.211 C 348.013 333.830, 347.853 334.027, 347.263 333.663 C 344.674 332.063, 335.805 345.341, 332.010 356.500 C 328.876 365.714, 324.096 362.345, 319.574 347.736 C 317.243 340.205, 312.831 330.987, 311.848 331.594 C 311.355 331.899, 310.975 339.427, 311.004 348.324 C 311.033 357.221, 310.605 366.300, 310.052 368.500 C 308.501 374.675, 308.842 382.767, 311 391 C 313.027 398.732, 313.683 408.540, 312.109 407.568 C 310.914 406.829, 308.241 411.041, 307.985 414.069 C 307.631 418.245, 307.939 419, 310 419 C 311.100 419, 312 419.450, 312 420 C 312 420.550, 311.580 421, 311.067 421 C 310.034 421, 309.433 422.660, 308.442 428.250 L 307.777 432 335.236 432 L 362.694 432 363.852 429.750 L 365.011 427.500 364.434 429.763 L 363.857 432.026 398.178 431.763 L 432.500 431.500 432.500 424.587 C 432.500 420.102, 432.921 417.533, 433.700 417.271 C 434.530 416.991, 434.625 416.143, 434.006 414.515 C 433.069 412.051, 433.042 408, 433.963 408 C 434.258 408, 434.391 405.863, 434.257 403.250 C 434.123 400.638, 434.467 396.475, 435.021 394 C 435.574 391.525, 436.199 387.088, 436.409 384.140 C 436.652 380.728, 437.425 378.185, 438.537 377.140 C 440.158 375.619, 440.242 375.621, 439.702 377.175 C 439.325 378.261, 439.964 379.402, 441.525 380.425 C 444.066 382.090, 448 382.555, 448 381.191 C 448 380.746, 448.563 379.612, 449.251 378.671 C 450.311 377.221, 450.502 377.766, 450.501 382.230 C 450.500 386.189, 450.873 387.534, 452 387.635 C 452.825 387.709, 453.950 387.874, 454.500 388.003 C 455.050 388.132, 455.821 388.189, 456.214 388.130 C 456.607 388.072, 456.693 388.636, 456.407 389.383 C 456.120 390.130, 456.686 391.049, 457.665 391.425 C 459.033 391.950, 459.143 392.293, 458.141 392.913 C 457.251 393.463, 457.813 393.913, 459.919 394.334 C 462.796 394.909, 464.344 397, 461.893 397 C 461.284 397, 461.034 397.646, 461.337 398.435 C 461.640 399.225, 461.350 400.091, 460.694 400.359 C 459.811 400.720, 459.854 401.096, 460.857 401.799 C 461.715 402.400, 461.960 403.550, 461.524 404.923 C 461.131 406.163, 461.352 407.719, 462.040 408.548 C 462.982 409.683, 462.977 410, 462.019 410 C 460.367 410, 461.547 420.123, 463.360 421.500 C 464.083 422.050, 464.938 423.175, 465.259 424 C 465.580 424.825, 465.878 404.688, 465.921 379.250 C 465.983 342.882, 465.733 332.997, 464.750 332.985 C 463.903 332.974, 463.983 332.628, 465 331.909 C 466.129 331.110, 466.191 330.722, 465.250 330.341 C 464.563 330.062, 464 329.394, 464 328.858 C 464 328.321, 464.450 328.160, 465 328.500 C 465.550 328.840, 466 328.191, 466 327.059 C 466 324.988, 464.709 324.499, 460.250 324.882 C 459.012 324.989, 458 324.657, 458 324.146 C 458 322.907, 462.433 321.845, 464.421 322.608 C 465.815 323.143, 466 321.507, 466 308.607 C 466 300.573, 465.712 294, 465.360 294 C 465.008 294, 464.084 294.788, 463.305 295.750 C 462.017 297.342, 461.984 297.305, 462.933 295.337 C 463.507 294.148, 464.545 292.946, 465.239 292.666 C 465.932 292.387, 466.050 292.124, 465.500 292.083 C 464.950 292.041, 463.150 292.824, 461.500 293.823 M 453.750 299.080 C 452.788 299.641, 452.052 301.090, 452.116 302.300 C 452.205 303.992, 452.338 304.096, 452.689 302.750 C 453.266 300.544, 454.624 300.506, 455.831 302.663 C 456.656 304.137, 456.839 304.081, 457.445 302.172 C 458.604 298.522, 457.005 297.184, 453.750 299.080 M 445.458 303.068 C 445.095 303.656, 444.168 303.895, 443.399 303.600 C 442.629 303.304, 442 303.499, 442 304.031 C 442 304.564, 440.901 305, 439.557 305 C 438.165 305, 436.443 305.957, 435.557 307.223 C 434.701 308.445, 434 309.104, 434 308.687 C 434 308.271, 433.087 308.418, 431.972 309.015 C 430.857 309.612, 430.205 310.523, 430.524 311.039 C 430.852 311.569, 430.357 311.691, 429.388 311.319 C 428.137 310.838, 427.892 311.016, 428.485 311.975 C 429.102 312.973, 428.660 313.168, 426.649 312.784 C 424.833 312.437, 424 312.705, 424 313.639 C 424 314.424, 425.058 315, 426.500 315 C 428.056 315, 429 315.567, 429 316.500 C 429 317.325, 429.450 318, 430 318 C 430.550 318, 431 317.100, 431 316 C 431 314.900, 431.650 314, 432.445 314 C 433.240 314, 434.508 312.762, 435.262 311.250 C 436.016 309.738, 437.184 308.619, 437.857 308.764 C 438.530 308.908, 440.029 308.520, 441.187 307.900 C 442.884 306.992, 443.469 307.086, 444.196 308.386 C 445.527 310.763, 447.334 310.341, 448.734 307.326 C 449.641 305.372, 449.675 304.314, 448.862 303.334 C 447.525 301.723, 446.346 301.631, 445.458 303.068 M 401.500 315.536 C 399.850 316.292, 399.175 316.910, 400 316.910 C 400.825 316.910, 402.850 316.292, 404.500 315.536 C 406.150 314.781, 406.825 314.162, 406 314.162 C 405.175 314.162, 403.150 314.781, 401.500 315.536 M 421.232 317 C 421.232 318.925, 421.438 319.712, 421.689 318.750 C 421.941 317.788, 421.941 316.212, 421.689 315.250 C 421.438 314.288, 421.232 315.075, 421.232 317 M 423.446 317.087 C 423.077 317.685, 423.180 318.580, 423.675 319.075 C 424.210 319.610, 424.637 319.168, 424.726 317.988 C 424.893 315.768, 424.453 315.458, 423.446 317.087 M 431.607 317.582 C 430.717 319.901, 430.862 321, 432.059 321 C 432.641 321, 432.840 320.550, 432.500 320 C 432.160 319.450, 432.809 319, 433.941 319 C 435.105 319, 436 318.348, 436 317.500 C 436 315.503, 432.379 315.570, 431.607 317.582 M 378.250 321.247 C 376.462 321.820, 375 322.674, 375 323.145 C 375 324.346, 376.751 324.212, 377.530 322.951 C 377.972 322.237, 378.635 322.282, 379.613 323.094 C 381.170 324.386, 382.267 323.792, 382.607 321.471 C 382.851 319.812, 382.740 319.806, 378.250 321.247 M 400.113 322.915 C 398.103 324.431, 397.995 324.784, 399.378 325.315 C 400.393 325.704, 401 325.419, 401 324.552 C 401 323.790, 401.563 322.966, 402.250 322.720 C 402.938 322.475, 403.268 322.018, 402.985 321.705 C 402.702 321.393, 401.409 321.937, 400.113 322.915 M 426.015 324.750 C 426.024 325.749, 426.351 326.071, 426.777 325.500 C 427.187 324.950, 427.931 324.163, 428.428 323.750 C 428.926 323.337, 428.583 323, 427.667 323 C 426.740 323, 426.007 323.777, 426.015 324.750 M 365.821 326.250 C 364.462 327.536, 364.202 327.596, 358.833 327.850 C 354.983 328.032, 355.737 329.115, 360.066 329.619 C 362.013 329.846, 364.219 329.281, 365.856 328.135 C 367.310 327.118, 369.021 326.470, 369.658 326.695 C 370.295 326.921, 371.110 326.632, 371.467 326.053 C 372.398 324.548, 367.438 324.721, 365.821 326.250 M 427 328 C 427 328.550, 426.401 329, 425.669 329 C 424.543 329, 423.523 330.439, 421.238 335.250 C 421.042 335.663, 421.569 336, 422.410 336 C 423.357 336, 423.718 335.430, 423.362 334.500 C 423.045 333.675, 423.311 333, 423.952 333 C 424.593 333, 424.860 332.582, 424.544 332.072 C 424.229 331.562, 424.877 330.856, 425.985 330.505 C 427.698 329.961, 428.977 327, 427.500 327 C 427.225 327, 427 327.450, 427 328 M 303.823 329 C 303.462 329.825, 302.875 331.822, 302.517 333.438 C 301.324 338.834, 292.415 356.460, 286.235 365.651 C 279.938 375.016, 271.876 382.982, 268.684 382.994 C 266.639 383.001, 263.287 384.573, 260.908 386.641 C 259.536 387.833, 259.482 388.679, 260.517 392.762 C 262.026 398.714, 264.131 399.305, 265.928 394.282 C 267.253 390.581, 277.303 380.138, 279.630 380.045 C 281.824 379.958, 297.129 357.523, 302.591 346.390 C 304.675 342.142, 305.046 340.118, 304.788 334.390 C 304.618 330.600, 304.184 328.175, 303.823 329 M 396.218 329.154 C 396.737 330.712, 398.974 330.984, 399.053 329.500 C 399.082 328.950, 398.355 328.345, 397.438 328.154 C 396.395 327.939, 395.938 328.313, 396.218 329.154 M 452.114 329.363 C 451.198 330.466, 451.461 330.635, 453.491 330.246 C 454.871 329.983, 456 329.369, 456 328.883 C 456 327.517, 453.377 327.840, 452.114 329.363 M 402.575 331.145 C 401.516 332.165, 401.066 332.993, 401.575 332.985 C 403.205 332.958, 405.256 331.263, 404.872 330.261 C 404.667 329.727, 403.634 330.125, 402.575 331.145 M 433.070 333.250 C 433.032 334.762, 433.450 336, 434 336 C 435.174 336, 435.174 335.231, 434 332.500 C 433.238 330.728, 433.133 330.813, 433.070 333.250 M 350 332.544 C 350 332.660, 350.675 333.315, 351.500 334 C 352.717 335.010, 353 334.970, 353 333.789 C 353 332.988, 352.325 332.333, 351.500 332.333 C 350.675 332.333, 350 332.428, 350 332.544 M 355.658 333.826 C 354.772 334.804, 353.912 336.481, 353.745 337.552 C 353.578 338.624, 353.045 340.175, 352.560 341 C 352.075 341.825, 352.792 341.488, 354.153 340.250 C 356.988 337.674, 359.212 337.283, 358.357 339.511 C 357.942 340.593, 358.236 340.847, 359.389 340.404 C 360.275 340.064, 361 339.201, 361 338.487 C 361 337.680, 361.758 337.385, 363 337.710 C 365.260 338.301, 365.618 339.570, 363.750 340.367 C 363.063 340.660, 363.974 340.689, 365.775 340.431 C 368.279 340.073, 369.221 340.388, 369.775 341.768 C 370.468 343.493, 370.577 343.495, 372.227 341.810 C 373.863 340.139, 373.863 339.999, 372.227 339.150 C 371.277 338.658, 369.504 338.417, 368.286 338.616 C 366.543 338.900, 366.204 338.607, 366.695 337.238 C 367.038 336.282, 366.963 335.822, 366.528 336.215 C 366.093 336.608, 364.924 336.494, 363.929 335.962 C 362.749 335.331, 361.906 335.343, 361.502 335.997 C 360.676 337.333, 357 337.287, 357 335.941 C 357 335.359, 357.450 335.160, 358 335.500 C 358.550 335.840, 359 335.443, 359 334.618 C 359 332.257, 357.417 331.882, 355.658 333.826 M 436 335.531 C 436 336.339, 435.564 337, 435.031 337 C 434.499 337, 434.300 337.617, 434.589 338.371 C 435.287 340.190, 432.409 342.971, 429.679 343.116 C 428.222 343.194, 428.032 343.374, 429.105 343.661 C 429.988 343.898, 431.316 345.222, 432.055 346.604 C 433.135 348.621, 433.901 348.991, 435.940 348.479 C 437.337 348.128, 438.768 347.376, 439.119 346.808 C 439.523 346.153, 439.983 346.274, 440.370 347.137 C 440.706 347.887, 440.730 347.485, 440.422 346.245 C 440.052 344.757, 440.381 343.791, 441.388 343.405 C 442.478 342.986, 442.748 341.988, 442.332 339.910 C 441.888 337.688, 442.120 337, 443.316 337 C 444.177 337, 445.203 336.480, 445.595 335.845 C 446.038 335.130, 445.870 334.962, 445.155 335.405 C 444.520 335.797, 444 335.641, 444 335.059 C 444 334.477, 443.523 334, 442.941 334 C 442.359 334, 442.160 334.450, 442.500 335 C 442.840 335.550, 442.641 336, 442.059 336 C 441.477 336, 441 336.675, 441 337.500 C 441 338.325, 440.523 339, 439.941 339 C 439.359 339, 439.156 339.444, 439.492 339.987 C 439.828 340.530, 439.227 341.914, 438.157 343.062 C 435.822 345.568, 434.013 343.820, 436.215 341.187 C 436.992 340.259, 437.583 338.825, 437.530 338 C 437.477 337.175, 437.823 336.225, 438.300 335.889 C 438.777 335.553, 438.455 335.005, 437.584 334.671 C 436.582 334.286, 436 334.602, 436 335.531 M 374.695 336.943 C 374.991 338.074, 375.631 339, 376.117 339 C 377.465 339, 377.170 337.386, 375.579 336.065 C 374.412 335.097, 374.254 335.255, 374.695 336.943 M 395.430 335.682 C 393.766 336.011, 393.445 336.672, 393.793 339.046 C 394.276 342.335, 394.381 342.401, 396.941 341.032 C 398.573 340.158, 399.649 334.804, 398.125 335.136 C 397.781 335.211, 396.568 335.457, 395.430 335.682 M 423.187 338.472 C 420.684 339.852, 420.585 341.484, 423 341.527 C 424.469 341.553, 426.905 339.234, 426.968 337.750 C 427.011 336.742, 425.959 336.943, 423.187 338.472 M 429 338.622 C 429 339.951, 429.271 340.020, 430.500 339 C 431.325 338.315, 432 337.585, 432 337.378 C 432 337.170, 431.325 337, 430.500 337 C 429.675 337, 429 337.730, 429 338.622 M 380.545 339.859 C 379.876 341.966, 380.779 345, 382.076 345 C 382.549 345, 382.657 344.269, 382.314 343.376 C 381.939 342.399, 382.350 341.384, 383.346 340.827 C 385.590 339.571, 385.435 338, 383.067 338 C 382.004 338, 380.869 338.837, 380.545 339.859 M 374.768 342.435 C 374.289 344.939, 375.433 347.900, 376.476 346.857 C 376.798 346.535, 377.466 344.861, 377.961 343.136 C 378.733 340.444, 378.604 340, 377.047 340 C 375.919 340, 375.057 340.921, 374.768 342.435 M 417 341.895 C 417 342.387, 415.883 343.850, 414.517 345.145 C 411.311 348.186, 411.364 349.016, 414.750 348.810 C 418.718 348.569, 419.322 348.013, 417.637 346.151 C 416.279 344.649, 416.431 344.500, 419.322 344.500 C 421.070 344.500, 422.971 344.808, 423.548 345.184 C 424.124 345.560, 425.173 345.511, 425.878 345.075 C 427.486 344.082, 421.725 342.785, 419.500 343.639 C 418.407 344.058, 418.152 343.768, 418.596 342.611 C 418.936 341.725, 418.716 341, 418.107 341 C 417.498 341, 417 341.403, 417 341.895 M 383.738 344.894 C 383.420 346.109, 383.727 346.716, 384.592 346.589 C 386.528 346.305, 387.603 345.003, 385.917 344.985 C 384.750 344.972, 384.765 344.798, 386 344 C 387.304 343.157, 387.287 343.029, 385.867 343.015 C 384.968 343.007, 384.010 343.852, 383.738 344.894 M 373.125 349.766 C 372.199 351.497, 372.297 352.067, 373.651 352.824 C 375.171 353.675, 375.129 354.055, 373.157 357.246 C 371.050 360.655, 370.254 365.026, 371.750 364.974 C 372.471 364.949, 374.867 360.241, 376.826 355 C 377.949 351.995, 378.156 350.915, 377.543 351.250 C 377.292 351.387, 376.451 350.631, 375.675 349.570 C 374.290 347.676, 374.242 347.680, 373.125 349.766 M 351.500 351 C 351.160 351.550, 351.160 352.450, 351.500 353 C 352.499 354.616, 350.365 354.145, 348.948 352.437 C 347.773 351.022, 347.564 351.027, 346.746 352.489 C 346.175 353.510, 346.251 354.597, 346.953 355.443 C 348.625 357.458, 352.982 355.154, 352.992 352.250 C 353.001 349.831, 352.488 349.401, 351.500 351 M 364 351.580 C 364 353.693, 366.075 354.353, 367.678 352.751 C 368.993 351.436, 368.866 351.208, 366.582 350.771 C 364.875 350.445, 364 350.719, 364 351.580 M 336.750 353.531 C 334.490 356.560, 334.535 357.319, 336.900 356.053 C 338.319 355.294, 338.936 355.391, 339.337 356.436 C 339.632 357.205, 339.227 358.083, 338.437 358.386 C 337.647 358.689, 337 359.912, 337 361.103 C 337 363.235, 337.031 363.231, 338.907 360.845 C 340.071 359.366, 340.773 356.980, 340.709 354.722 C 340.651 352.687, 340.298 351.518, 339.923 352.124 C 339.481 352.839, 339.112 352.868, 338.871 352.206 C 338.667 351.644, 337.712 352.241, 336.750 353.531 M 428.265 352.906 C 428.632 354.308, 428.147 354.930, 426.432 355.258 C 425.049 355.522, 423.889 355.153, 423.581 354.352 C 423.296 353.608, 423.574 353, 424.198 353 C 424.822 353, 425.064 352.731, 424.736 352.403 C 423.815 351.482, 418 355.257, 418 356.775 C 418 357.513, 417.550 357.840, 417 357.500 C 416.450 357.160, 416 357.359, 416 357.941 C 416 358.523, 416.337 359, 416.750 359.001 C 417.163 359.001, 417.565 360.126, 417.644 361.501 C 417.724 362.875, 417.434 364, 417.001 364 C 416.568 364, 415.946 364.698, 415.618 365.552 C 415.291 366.406, 415.421 366.858, 415.907 366.558 C 416.393 366.257, 417.063 366.721, 417.395 367.588 C 418.302 369.950, 418.237 369.997, 415 369.350 C 412.023 368.755, 411.484 369.350, 411.925 372.750 C 412.015 373.438, 411.565 374, 410.927 374 C 410.289 374, 409.976 374.801, 410.232 375.780 C 410.488 376.758, 410.016 378.196, 409.183 378.974 C 408.134 379.954, 408.026 380.509, 408.834 380.778 C 409.475 380.992, 410 382.479, 410 384.083 C 410 388.167, 411.880 387.716, 413.651 383.207 C 414.891 380.051, 415.665 379.375, 418.268 379.176 C 422.159 378.880, 422.614 378.445, 421.030 376.536 C 420.006 375.302, 420.063 374.913, 421.339 374.423 C 422.200 374.093, 423.376 374.114, 423.952 374.470 C 424.528 374.827, 425 374.627, 425 374.028 C 425 373.428, 424.400 372.707, 423.667 372.426 C 421.542 371.610, 422.018 368.871, 424.167 369.553 C 425.541 369.989, 426 369.617, 426 368.067 C 426 366.647, 426.644 366, 428.059 366 C 429.191 366, 429.840 365.550, 429.500 365 C 429.160 364.450, 427.982 364, 426.882 364 C 425.782 364, 425.160 363.550, 425.500 363 C 425.840 362.450, 426.965 362, 428 362 C 429.035 362, 430.204 361.479, 430.597 360.842 C 431.088 360.049, 430.634 359.862, 429.156 360.249 C 427.970 360.559, 427 360.405, 427 359.906 C 427 359.408, 427.867 359, 428.927 359 C 429.988 359, 431.790 357.811, 432.933 356.359 C 435.384 353.242, 434.266 351, 430.261 351 C 428.300 351, 427.873 351.408, 428.265 352.906 M 413.079 353.281 C 412.964 355.883, 416.021 356.691, 417.634 354.485 C 418.374 353.474, 418.697 352.388, 418.353 352.073 C 418.008 351.758, 417.525 352.063, 417.280 352.750 C 417.034 353.438, 416.233 354, 415.500 354 C 414.767 354, 413.940 353.438, 413.662 352.750 C 413.366 352.015, 413.125 352.234, 413.079 353.281 M 382.908 356.056 C 380.698 358.486, 380.550 359.005, 381.908 359.570 C 383.037 360.040, 383.136 360.369, 382.250 360.700 C 381.563 360.957, 381 361.852, 381 362.690 C 381 363.634, 380.429 363.995, 379.500 363.638 C 378.675 363.322, 378 363.499, 378 364.031 C 378 364.564, 378.450 365, 379 365 C 379.550 365, 380 365.702, 380 366.559 C 380 367.416, 379.550 367.840, 379 367.500 C 378.450 367.160, 378 367.359, 378 367.941 C 378 368.523, 378.450 369, 379 369 C 379.550 369, 380.014 369.788, 380.032 370.750 C 380.061 372.339, 380.198 372.323, 381.521 370.573 C 383.629 367.787, 384.516 369.412, 383.210 373.666 C 382.001 377.606, 382.682 380.319, 384.200 377.607 C 384.708 376.700, 385.545 376.219, 386.061 376.538 C 386.578 376.857, 387 376.641, 387 376.059 C 387 375.477, 386.212 374.986, 385.250 374.968 C 383.665 374.939, 383.651 374.821, 385.099 373.718 C 386.705 372.495, 387 371.908, 387 369.933 C 387 369.299, 387.864 369.140, 389.125 369.540 C 390.555 369.994, 391.027 369.852, 390.566 369.107 C 390.190 368.498, 390.359 368, 390.941 368 C 391.523 368, 392 367.592, 392 367.094 C 392 366.595, 391.101 366.422, 390.002 366.710 C 388.221 367.176, 388.067 366.867, 388.588 363.866 C 388.910 362.015, 389.345 359.938, 389.555 359.250 C 389.765 358.563, 389.276 358, 388.469 358 C 387.661 358, 386.944 357.550, 386.875 357 C 386.560 354.479, 386.470 354.138, 386 353.686 C 385.725 353.422, 384.333 354.489, 382.908 356.056 M 225.700 358.750 C 226.488 360.916, 231.917 369, 232.583 369 C 232.851 369, 232.605 368.130, 232.035 367.066 C 231.466 366.002, 231 364.175, 231 363.007 C 231 361.838, 230.550 361.160, 230 361.500 C 229.450 361.840, 229 361.609, 229 360.988 C 229 359.836, 226.584 357, 225.603 357 C 225.306 357, 225.349 357.788, 225.700 358.750 M 419.250 359.662 C 417.509 360.365, 417.684 362, 419.500 362 C 420.325 362, 421 361.523, 421 360.941 C 421 360.359, 421.520 360.203, 422.155 360.595 C 422.870 361.038, 423.038 360.870, 422.595 360.155 C 421.840 358.933, 421.267 358.848, 419.250 359.662 M 345.268 361.303 C 345.589 363.797, 347.403 363.939, 347.790 361.500 C 348.028 359.999, 347.875 359.840, 347.175 360.863 C 346.387 362.014, 346.148 362.014, 345.639 360.863 C 345.257 360.001, 345.121 360.163, 345.268 361.303 M 337.473 368.309 C 336.059 372.919, 336.230 387.243, 337.705 387.735 C 338.558 388.019, 338.910 385.651, 338.957 379.315 C 339.075 363.361, 339.050 363.171, 337.473 368.309 M 438 366 C 436.667 366.862, 436.667 366.969, 438 366.969 C 438.825 366.969, 440.175 366.533, 441 366 C 442.333 365.138, 442.333 365.031, 441 365.031 C 440.175 365.031, 438.825 365.467, 438 366 M 372.459 367.067 C 372.096 367.653, 372.040 368.373, 372.333 368.667 C 373.050 369.383, 375 368.121, 375 366.941 C 375 365.663, 373.274 365.748, 372.459 367.067 M 439.495 369.008 C 439.153 369.562, 439.532 370.675, 440.339 371.482 C 441.628 372.771, 441.879 372.759, 442.406 371.384 C 443.438 368.695, 440.946 366.661, 439.495 369.008 M 369.177 371.667 C 369.657 374.142, 371.666 374.384, 372.279 372.041 C 372.684 370.494, 372.334 370, 370.833 370 C 369.522 370, 368.963 370.563, 369.177 371.667 M 374 373.933 C 374 374.446, 373.067 375.161, 371.928 375.523 C 370.768 375.891, 370.077 376.758, 370.358 377.492 C 370.970 379.086, 367.556 380.156, 366.197 378.797 C 365.569 378.169, 364.955 378.264, 364.458 379.067 C 363.991 379.824, 364.101 380.055, 364.741 379.660 C 365.318 379.303, 366.037 379.655, 366.339 380.441 C 366.641 381.227, 366.350 382.069, 365.694 382.310 C 364.780 382.647, 364.775 383.043, 365.673 383.998 C 366.604 384.988, 367.462 384.807, 369.827 383.123 C 371.467 381.955, 373.639 380.993, 374.654 380.985 C 376.068 380.973, 376.183 380.768, 375.147 380.112 C 374.085 379.439, 374.042 378.791, 374.947 377.099 C 375.581 375.914, 376.453 375.162, 376.884 375.428 C 377.314 375.694, 377.667 375.257, 377.667 374.456 C 377.667 373.655, 376.842 373, 375.833 373 C 374.825 373, 374 373.420, 374 373.933 M 379 374.640 C 379 375.542, 378.259 376.821, 377.354 377.483 C 375.912 378.537, 376.006 378.661, 378.104 378.473 C 379.422 378.355, 380.372 377.703, 380.215 377.024 C 380.058 376.345, 380.451 375.162, 381.087 374.395 C 381.997 373.299, 381.897 373, 380.622 373 C 379.730 373, 379 373.738, 379 374.640 M 454 373.893 C 454 374.384, 454.712 375.059, 455.582 375.393 C 458.029 376.332, 458.271 376.128, 456.643 374.500 C 454.943 372.800, 454 372.583, 454 373.893 M 460.294 378.417 C 460.272 379.012, 460.085 380.017, 459.877 380.650 C 459.670 381.283, 459.837 381.845, 460.250 381.900 C 460.663 381.955, 461.044 381.663, 461.099 381.250 C 461.153 380.837, 461.579 379.788, 462.045 378.917 C 462.612 377.856, 462.470 377.333, 461.613 377.333 C 460.909 377.333, 460.316 377.821, 460.294 378.417 M 357.079 382.250 C 357.132 383.753, 357.347 384.002, 357.729 383 C 358.043 382.175, 358.795 381.169, 359.400 380.765 C 360.078 380.312, 359.829 380.025, 358.750 380.015 C 357.574 380.005, 357.026 380.738, 357.079 382.250 M 417.753 386.390 C 416.793 387.119, 415.717 389.242, 415.363 391.108 C 415.008 392.973, 414.330 395.260, 413.856 396.189 C 413.338 397.206, 413.396 398.127, 414.004 398.503 C 415.164 399.220, 415.975 397.512, 416.410 393.438 C 416.576 391.875, 417.299 390.400, 418.016 390.161 C 418.889 389.870, 419.105 390.284, 418.671 391.415 C 418.288 392.413, 418.427 392.854, 419.011 392.493 C 419.555 392.157, 420 392.522, 420 393.304 C 420 394.142, 420.915 394.680, 422.226 394.613 C 423.759 394.535, 424.768 393.565, 425.463 391.500 C 426.019 389.850, 426.930 388.133, 427.487 387.684 C 428.046 387.234, 427.580 387.124, 426.448 387.439 C 425.319 387.753, 423.519 387.347, 422.448 386.536 C 420.071 384.739, 419.933 384.735, 417.753 386.390 M 459 386 C 459 386.550, 459.423 387, 459.941 387 C 460.459 387, 461.160 386.550, 461.500 386 C 461.840 385.450, 461.416 385, 460.559 385 C 459.702 385, 459 385.450, 459 386 M 378.250 388.689 C 379.212 388.941, 380.788 388.941, 381.750 388.689 C 382.712 388.438, 381.925 388.232, 380 388.232 C 378.075 388.232, 377.288 388.438, 378.250 388.689 M 337.847 390.579 C 337.103 392.002, 336.771 399, 337.448 399 C 338.710 399, 339.907 393.922, 339.136 391.839 C 338.692 390.639, 338.113 390.072, 337.847 390.579 M 378.325 390.658 C 378.687 391.020, 378.481 391.920, 377.869 392.658 C 377.008 393.696, 377.161 394, 378.544 394 C 379.528 394, 380.037 393.704, 379.675 393.342 C 379.313 392.980, 379.519 392.080, 380.131 391.342 C 380.992 390.304, 380.839 390, 379.456 390 C 378.472 390, 377.963 390.296, 378.325 390.658 M 353 398.500 C 353 399.530, 353.655 400.020, 354.750 399.810 C 356.858 399.404, 356.725 397.629, 354.553 397.177 C 353.647 396.988, 353 397.539, 353 398.500 M 336.694 400.639 C 335.895 401.438, 336.798 403, 338.059 403 C 338.577 403, 339 402.325, 339 401.500 C 339 399.954, 337.820 399.513, 336.694 400.639 M 420 402.031 C 420 402.564, 420.417 403, 420.927 403 C 421.436 403, 422.059 403.788, 422.311 404.750 C 422.671 406.130, 422.792 406.047, 422.884 404.357 C 422.948 403.178, 422.325 401.955, 421.500 401.638 C 420.675 401.322, 420 401.499, 420 402.031 M 270.708 405.760 C 268.778 406.194, 269.006 408.047, 271.620 413.187 C 273.957 417.782, 275 417.472, 275 412.181 C 275 406.989, 273.725 405.082, 270.708 405.760 M 418 413.059 C 418 414.191, 418.450 414.840, 419 414.500 C 419.550 414.160, 420 413.234, 420 412.441 C 420 411.648, 419.550 411, 419 411 C 418.450 411, 418 411.927, 418 413.059 M 250.667 419.667 C 250.300 420.033, 250 422.090, 250 424.238 C 250 428.512, 251.990 431.325, 254.369 430.412 C 255.573 429.950, 255.677 429.280, 254.873 427.165 C 254.315 425.699, 253.899 424.385, 253.948 424.246 C 253.996 424.106, 253.754 422.868, 253.410 421.496 C 252.782 418.996, 251.915 418.418, 250.667 419.667 M 363.386 421.765 C 362.774 422.169, 362.570 423.330, 362.933 424.345 C 363.520 425.986, 363.723 425.903, 364.775 423.595 C 365.956 421.002, 365.485 420.381, 363.386 421.765 M 258.651 429.833 C 257.236 431.397, 257.213 431.667, 258.496 431.667 C 259.323 431.667, 260 431.265, 260 430.774 C 260 430.284, 260.445 430.157, 260.989 430.493 C 261.555 430.843, 261.723 430.442, 261.382 429.552 C 260.639 427.617, 260.658 427.615, 258.651 429.833"
        stroke="none" fill="#4d3b34" fill-rule="evenodd" />
</svg>